{
  "source": "C:\\Users\\Peter\\Desktop\\stuff\\MIUN\\quantitative_research\\video_compression\\videos\\BVI-HD\\BVI-HD_CDVL_videos\\ORIG\\Boxing_1920x1080_30fps.mp4",
  "output": "C:\\Users\\Peter\\Desktop\\stuff\\MIUN\\quantitative_research\\video_compression\\compressed_videos\\BVI-HD\\hevc\\3\\Boxing_1920x1080_30fps_hevc.mp4",
  "codec": "hevc",
  "ok": "Input #0, mov,mp4,m4a,3gp,3g2,mj2, from 'C:\\Users\\Peter\\Desktop\\stuff\\MIUN\\quantitative_research\\video_compression\\videos\\BVI-HD\\BVI-HD_CDVL_videos\\ORIG\\Boxing_1920x1080_30fps.mp4':\n  Metadata:\n    major_brand     : isom\n    minor_version   : 512\n    compatible_brands: isomiso2avc1mp41\n    encoder         : Lavf54.28.101\n  Duration: 00:00:05.00, start: 0.000000, bitrate: 238363 kb/s\n  Stream #0:0[0x1](und): Video: h264 (High 4:4:4 Predictive) (avc1 / 0x31637661), yuv420p(progressive), 1920x1080, 238359 kb/s, 30 fps, 30 tbr, 30 tbn (default)\n    Metadata:\n      handler_name    : VideoHandler\n      vendor_id       : [0][0][0][0]\n[out#0/mp4 @ 000001a6a112c580] Codec AVOption b:a (set bitrate (in bits/s)) has not been used for any stream. The most likely reason is either wrong type (e.g. a video option with no video streams) or that it is a private option of some decoder which was not actually used for any stream.\nStream mapping:\n  Stream #0:0 -> #0:0 (h264 (native) -> hevc (libx265))\nPress [q] to stop, [?] for help\n[libx265 @ 000001a6a19cb240] Unknown option: \"aq-mode.\nx265 [info]: HEVC encoder version 4.1+190-8f11c33ac\nx265 [info]: build info [Windows][GCC 15.1.0][64 bit] 10bit\nx265 [info]: using cpu capabilities: MMX2 SSE2Fast LZCNT SSSE3 SSE4.2 AVX FMA3 BMI2 AVX2\nx265 [info]: Main 10 profile, Level-4 (Main tier)\nx265 [info]: Thread pool created using 12 threads\nx265 [info]: Slices                              : 1\nx265 [info]: frame threads / pool features       : 3 / wpp(17 rows)\nx265 [info]: Coding QT: max CU size, min CU size : 64 / 8\nx265 [info]: Residual QT: max TU size, max depth : 32 / 1 inter / 1 intra\nx265 [info]: ME / range / subpel / merge         : star / 57 / 3 / 3\nx265 [info]: Keyframe min / max / scenecut / bias  : 25 / 250 / 40 / 5.00 \nx265 [info]: Lookahead / bframes / badapt        : 25 / 4 / 2\nx265 [info]: b-pyramid / weightp / weightb       : 1 / 1 / 0\nx265 [info]: References / ref-limit  cu / depth  : 4 / on / on\nx265 [info]: AQ: mode / str / qg-size / cu-tree  : 2 / 1.0 / 32 / 1\nx265 [info]: Rate Control / qCompress            : ABR-3000 kbps / 0.60\nx265 [info]: VBV/HRD buffer / max-rate / init    : 3000 / 3000 / 0.750\nx265 [info]: tools: rect limit-modes rd=4 psy-rd=2.00 rdoq=2 psy-rdoq=1.00\nx265 [info]: tools: rskip mode=1 signhide tmvp strong-intra-smoothing lslices=4\nx265 [info]: tools: deblock sao dhdr10-info\nOutput #0, mp4, to 'C:\\Users\\Peter\\Desktop\\stuff\\MIUN\\quantitative_research\\video_compression\\compressed_videos\\BVI-HD\\hevc\\3\\Boxing_1920x1080_30fps_hevc.mp4':\n  Metadata:\n    major_brand     : isom\n    minor_version   : 512\n    compatible_brands: isomiso2avc1mp41\n    encoder         : Lavf62.3.100\n  Stream #0:0(und): Video: hevc (hev1 / 0x31766568), yuv420p10le(tv, progressive), 1920x1080, q=2-31, 3000 kb/s, 30 fps, 15360 tbn (default)\n    Metadata:\n      encoder         : Lavc62.11.100 libx265\n      handler_name    : VideoHandler\n      vendor_id       : [0][0][0][0]\n    Side data:\n      cpb: bitrate max/min/avg: 3000000/0/3000000 buffer size: 3000000 vbv_delay: N/A\nframe=    0 fps=0.0 q=0.0 size=       0KiB time=N/A bitrate=N/A speed=N/A elapsed=0:00:00.52    \nframe=    0 fps=0.0 q=0.0 size=       0KiB time=N/A bitrate=N/A speed=N/A elapsed=0:00:01.08    \nframe=    0 fps=0.0 q=0.0 size=       0KiB time=N/A bitrate=N/A speed=N/A elapsed=0:00:01.61    \nframe=    0 fps=0.0 q=0.0 size=       0KiB time=N/A bitrate=N/A speed=N/A elapsed=0:00:02.14    \nframe=    0 fps=0.0 q=0.0 size=       0KiB time=N/A bitrate=N/A speed=N/A elapsed=0:00:02.65    \nframe=    0 fps=0.0 q=0.0 size=       0KiB time=N/A bitrate=N/A speed=N/A elapsed=0:00:03.17    \nframe=    0 fps=0.0 q=0.0 size=       0KiB time=N/A bitrate=N/A speed=N/A elapsed=0:00:03.69    \nframe=    0 fps=0.0 q=0.0 size=       0KiB time=N/A bitrate=N/A speed=N/A elapsed=0:00:04.22    \nframe=    0 fps=0.0 q=0.0 size=       0KiB time=N/A bitrate=N/A speed=N/A elapsed=0:00:04.79    \nframe=    0 fps=0.0 q=0.0 size=       0KiB time=N/A bitrate=N/A speed=N/A elapsed=0:00:05.33    \nframe=    0 fps=0.0 q=0.0 size=       0KiB time=N/A bitrate=N/A speed=N/A elapsed=0:00:05.87    \nframe=    0 fps=0.0 q=0.0 size=       0KiB time=N/A bitrate=N/A speed=N/A elapsed=0:00:06.40    \nframe=    0 fps=0.0 q=0.0 size=       0KiB time=N/A bitrate=N/A speed=N/A elapsed=0:00:06.92    \nframe=    0 fps=0.0 q=0.0 size=       0KiB time=N/A bitrate=N/A speed=N/A elapsed=0:00:07.47    \nframe=    0 fps=0.0 q=0.0 size=       0KiB time=N/A bitrate=N/A speed=N/A elapsed=0:00:07.98    \nframe=    0 fps=0.0 q=0.0 size=       0KiB time=N/A bitrate=N/A speed=N/A elapsed=0:00:08.51    \nframe=    0 fps=0.0 q=0.0 size=       0KiB time=N/A bitrate=N/A speed=N/A elapsed=0:00:09.05    \nframe=    0 fps=0.0 q=0.0 size=       0KiB time=N/A bitrate=N/A speed=N/A elapsed=0:00:09.59    \nframe=    0 fps=0.0 q=0.0 size=       0KiB time=N/A bitrate=N/A speed=N/A elapsed=0:00:10.13    \nframe=    0 fps=0.0 q=0.0 size=       0KiB time=N/A bitrate=N/A speed=N/A elapsed=0:00:10.67    \nframe=    1 fps=0.1 q=32.1 size=       0KiB time=-00:00:00.03 bitrate=N/A speed=N/A elapsed=0:00:11.20    \nframe=    1 fps=0.1 q=32.1 size=       0KiB time=-00:00:00.03 bitrate=N/A speed=N/A elapsed=0:00:11.75    \nframe=    1 fps=0.1 q=32.1 size=       0KiB time=-00:00:00.03 bitrate=N/A speed=N/A elapsed=0:00:12.29    \nframe=    1 fps=0.1 q=32.1 size=       0KiB time=-00:00:00.03 bitrate=N/A speed=N/A elapsed=0:00:12.84    \nframe=    1 fps=0.1 q=32.1 size=       0KiB time=-00:00:00.03 bitrate=N/A speed=N/A elapsed=0:00:13.39    \nframe=    2 fps=0.1 q=35.3 size=       0KiB time=00:00:00.00 bitrate=N/A speed=   0x elapsed=0:00:14.00    \nframe=    2 fps=0.1 q=35.3 size=       0KiB time=00:00:00.00 bitrate=N/A speed=   0x elapsed=0:00:14.58    \nframe=    2 fps=0.1 q=35.3 size=       0KiB time=00:00:00.00 bitrate=N/A speed=   0x elapsed=0:00:15.19    \nframe=    2 fps=0.1 q=35.3 size=       0KiB time=00:00:00.00 bitrate=N/A speed=   0x elapsed=0:00:15.74    \nframe=    2 fps=0.1 q=35.3 size=       0KiB time=00:00:00.00 bitrate=N/A speed=   0x elapsed=0:00:16.27    \nframe=    2 fps=0.1 q=35.3 size=       0KiB time=00:00:00.00 bitrate=N/A speed=   0x elapsed=0:00:16.77    \nframe=    2 fps=0.1 q=35.3 size=       0KiB time=00:00:00.00 bitrate=N/A speed=   0x elapsed=0:00:17.30    \nframe=    3 fps=0.2 q=37.4 size=       0KiB time=00:00:00.03 bitrate=  10.6kbits/s speed=0.00187x elapsed=0:00:17.81    \nframe=    3 fps=0.2 q=37.4 size=       0KiB time=00:00:00.03 bitrate=  10.6kbits/s speed=0.00181x elapsed=0:00:18.36    \nframe=    3 fps=0.2 q=37.4 size=       0KiB time=00:00:00.03 bitrate=  10.6kbits/s speed=0.00176x elapsed=0:00:18.90    \nframe=    3 fps=0.2 q=37.4 size=       0KiB time=00:00:00.03 bitrate=  10.6kbits/s speed=0.00172x elapsed=0:00:19.42    \nframe=    3 fps=0.2 q=37.4 size=       0KiB time=00:00:00.03 bitrate=  10.6kbits/s speed=0.00167x elapsed=0:00:19.99    \nframe=    3 fps=0.1 q=37.4 size=       0KiB time=00:00:00.03 bitrate=  10.6kbits/s speed=0.00163x elapsed=0:00:20.50    \nframe=    3 fps=0.1 q=37.4 size=       0KiB time=00:00:00.03 bitrate=  10.6kbits/s speed=0.00158x elapsed=0:00:21.03    \nframe=    3 fps=0.1 q=37.4 size=       0KiB time=00:00:00.03 bitrate=  10.6kbits/s speed=0.00154x elapsed=0:00:21.58    \nframe=    3 fps=0.1 q=37.4 size=       0KiB time=00:00:00.03 bitrate=  10.6kbits/s speed=0.00151x elapsed=0:00:22.12    \nframe=    3 fps=0.1 q=37.4 size=       0KiB time=00:00:00.03 bitrate=  10.6kbits/s speed=0.00147x elapsed=0:00:22.66    \nframe=    3 fps=0.1 q=37.4 size=       0KiB time=00:00:00.03 bitrate=  10.6kbits/s speed=0.00144x elapsed=0:00:23.19    \nframe=    3 fps=0.1 q=37.4 size=       0KiB time=00:00:00.03 bitrate=  10.6kbits/s speed=0.00141x elapsed=0:00:23.71    \nframe=    3 fps=0.1 q=37.4 size=       0KiB time=00:00:00.03 bitrate=  10.6kbits/s speed=0.00137x elapsed=0:00:24.25    \nframe=    4 fps=0.2 q=39.0 size=       0KiB time=00:00:00.06 bitrate=   5.3kbits/s speed=0.00269x elapsed=0:00:24.77    \nframe=    4 fps=0.2 q=39.0 size=       0KiB time=00:00:00.06 bitrate=   5.3kbits/s speed=0.00263x elapsed=0:00:25.30    \nframe=    4 fps=0.2 q=39.0 size=       0KiB time=00:00:00.06 bitrate=   5.3kbits/s speed=0.00258x elapsed=0:00:25.81    \nframe=    4 fps=0.2 q=39.0 size=       0KiB time=00:00:00.06 bitrate=   5.3kbits/s speed=0.00253x elapsed=0:00:26.35    \nframe=    4 fps=0.1 q=39.0 size=       0KiB time=00:00:00.06 bitrate=   5.3kbits/s speed=0.00247x elapsed=0:00:26.95    \nframe=    4 fps=0.1 q=39.0 size=       0KiB time=00:00:00.06 bitrate=   5.3kbits/s speed=0.00242x elapsed=0:00:27.50    \nframe=    4 fps=0.1 q=39.0 size=       0KiB time=00:00:00.06 bitrate=   5.3kbits/s speed=0.00237x elapsed=0:00:28.09    \nframe=    4 fps=0.1 q=39.0 size=       0KiB time=00:00:00.06 bitrate=   5.3kbits/s speed=0.00232x elapsed=0:00:28.67    \nframe=    4 fps=0.1 q=39.0 size=       0KiB time=00:00:00.06 bitrate=   5.3kbits/s speed=0.00228x elapsed=0:00:29.24    \nframe=    4 fps=0.1 q=39.0 size=       0KiB time=00:00:00.06 bitrate=   5.3kbits/s speed=0.00223x elapsed=0:00:29.86    \nframe=    4 fps=0.1 q=39.0 size=       0KiB time=00:00:00.06 bitrate=   5.3kbits/s speed=0.00219x elapsed=0:00:30.41    \nframe=    5 fps=0.2 q=37.4 size=       0KiB time=00:00:00.10 bitrate=   3.5kbits/s speed=0.00323x elapsed=0:00:30.92    \nframe=    5 fps=0.2 q=37.4 size=       0KiB time=00:00:00.10 bitrate=   3.5kbits/s speed=0.00318x elapsed=0:00:31.46    \nframe=    5 fps=0.2 q=37.4 size=       0KiB time=00:00:00.10 bitrate=   3.5kbits/s speed=0.00312x elapsed=0:00:32.01    \nframe=    5 fps=0.2 q=37.4 size=       0KiB time=00:00:00.10 bitrate=   3.5kbits/s speed=0.00307x elapsed=0:00:32.58    \nframe=    5 fps=0.2 q=37.4 size=       0KiB time=00:00:00.10 bitrate=   3.5kbits/s speed=0.00302x elapsed=0:00:33.11    \nframe=    5 fps=0.1 q=37.4 size=       0KiB time=00:00:00.10 bitrate=   3.5kbits/s speed=0.00297x elapsed=0:00:33.65    \nframe=    6 fps=0.2 q=33.6 size=       0KiB time=00:00:00.13 bitrate=   2.6kbits/s speed=0.0039x elapsed=0:00:34.17    \nframe=    6 fps=0.2 q=33.6 size=       0KiB time=00:00:00.13 bitrate=   2.6kbits/s speed=0.00384x elapsed=0:00:34.68    \nframe=    6 fps=0.2 q=33.6 size=       0KiB time=00:00:00.13 bitrate=   2.6kbits/s speed=0.00379x elapsed=0:00:35.20    \nframe=    7 fps=0.2 q=35.9 size=       0KiB time=00:00:00.16 bitrate=   2.1kbits/s speed=0.00467x elapsed=0:00:35.71    \nframe=    7 fps=0.2 q=35.9 size=       0KiB time=00:00:00.16 bitrate=   2.1kbits/s speed=0.0046x elapsed=0:00:36.23    \nframe=    8 fps=0.2 q=37.0 size=       0KiB time=00:00:00.20 bitrate=   1.8kbits/s speed=0.00544x elapsed=0:00:36.76    \nframe=    8 fps=0.2 q=37.0 size=       0KiB time=00:00:00.20 bitrate=   1.8kbits/s speed=0.00537x elapsed=0:00:37.26    \nframe=    8 fps=0.2 q=37.0 size=       0KiB time=00:00:00.20 bitrate=   1.8kbits/s speed=0.00529x elapsed=0:00:37.78    \nframe=    9 fps=0.2 q=36.6 size=       0KiB time=00:00:00.23 bitrate=   1.5kbits/s speed=0.00609x elapsed=0:00:38.30    \nframe=    9 fps=0.2 q=36.6 size=       0KiB time=00:00:00.23 bitrate=   1.5kbits/s speed=0.00601x elapsed=0:00:38.83    \nframe=    9 fps=0.2 q=36.6 size=       0KiB time=00:00:00.23 bitrate=   1.5kbits/s speed=0.00592x elapsed=0:00:39.41    \nframe=    9 fps=0.2 q=36.6 size=       0KiB time=00:00:00.23 bitrate=   1.5kbits/s speed=0.00584x elapsed=0:00:39.95    \nframe=   10 fps=0.2 q=35.6 size=       0KiB time=00:00:00.26 bitrate=   1.3kbits/s speed=0.00659x elapsed=0:00:40.49    \nframe=   10 fps=0.2 q=35.6 size=       0KiB time=00:00:00.26 bitrate=   1.3kbits/s speed=0.0065x elapsed=0:00:41.01    \nframe=   10 fps=0.2 q=35.6 size=       0KiB time=00:00:00.26 bitrate=   1.3kbits/s speed=0.00642x elapsed=0:00:41.53    \nframe=   10 fps=0.2 q=35.6 size=       0KiB time=00:00:00.26 bitrate=   1.3kbits/s speed=0.00634x elapsed=0:00:42.05    \nframe=   11 fps=0.3 q=31.1 size=       0KiB time=00:00:00.30 bitrate=   1.2kbits/s speed=0.00705x elapsed=0:00:42.55    \nframe=   11 fps=0.3 q=31.1 size=       0KiB time=00:00:00.30 bitrate=   1.2kbits/s speed=0.00696x elapsed=0:00:43.08    \nframe=   12 fps=0.3 q=34.0 size=       0KiB time=00:00:00.33 bitrate=   1.1kbits/s speed=0.00764x elapsed=0:00:43.60    \nframe=   12 fps=0.3 q=34.0 size=       0KiB time=00:00:00.33 bitrate=   1.1kbits/s speed=0.00755x elapsed=0:00:44.15    \nframe=   12 fps=0.3 q=34.0 size=       0KiB time=00:00:00.33 bitrate=   1.1kbits/s speed=0.00746x elapsed=0:00:44.70    \nframe=   12 fps=0.3 q=34.0 size=       0KiB time=00:00:00.33 bitrate=   1.1kbits/s speed=0.00737x elapsed=0:00:45.22    \nframe=   12 fps=0.3 q=34.0 size=       0KiB time=00:00:00.33 bitrate=   1.1kbits/s speed=0.00729x elapsed=0:00:45.74    \nframe=   12 fps=0.3 q=34.0 size=       0KiB time=00:00:00.33 bitrate=   1.1kbits/s speed=0.0072x elapsed=0:00:46.29    \nframe=   13 fps=0.3 q=35.8 size=       0KiB time=00:00:00.36 bitrate=   1.0kbits/s speed=0.00784x elapsed=0:00:46.79    \nframe=   13 fps=0.3 q=35.8 size=       0KiB time=00:00:00.36 bitrate=   1.0kbits/s speed=0.00775x elapsed=0:00:47.31    \nframe=   13 fps=0.3 q=35.8 size=       0KiB time=00:00:00.36 bitrate=   1.0kbits/s speed=0.00766x elapsed=0:00:47.85    \nframe=   14 fps=0.3 q=34.6 size=       0KiB time=00:00:00.40 bitrate=   0.9kbits/s speed=0.00827x elapsed=0:00:48.36    \nframe=   14 fps=0.3 q=34.6 size=       0KiB time=00:00:00.40 bitrate=   0.9kbits/s speed=0.00818x elapsed=0:00:48.89    \nframe=   14 fps=0.3 q=34.6 size=       0KiB time=00:00:00.40 bitrate=   0.9kbits/s speed=0.00809x elapsed=0:00:49.42    \nframe=   15 fps=0.3 q=30.5 size=       0KiB time=00:00:00.43 bitrate=   0.8kbits/s speed=0.00868x elapsed=0:00:49.94    \nframe=   15 fps=0.3 q=30.5 size=       0KiB time=00:00:00.43 bitrate=   0.8kbits/s speed=0.00858x elapsed=0:00:50.49    \nframe=   16 fps=0.3 q=32.5 size=       0KiB time=00:00:00.46 bitrate=   0.8kbits/s speed=0.00915x elapsed=0:00:51.01    \nframe=   16 fps=0.3 q=32.5 size=       0KiB time=00:00:00.46 bitrate=   0.8kbits/s speed=0.00905x elapsed=0:00:51.53    \nframe=   16 fps=0.3 q=32.5 size=       0KiB time=00:00:00.46 bitrate=   0.8kbits/s speed=0.00896x elapsed=0:00:52.06    \nframe=   16 fps=0.3 q=32.5 size=       0KiB time=00:00:00.46 bitrate=   0.8kbits/s speed=0.00887x elapsed=0:00:52.60    \nframe=   16 fps=0.3 q=32.5 size=       0KiB time=00:00:00.46 bitrate=   0.8kbits/s speed=0.00878x elapsed=0:00:53.13    \nframe=   17 fps=0.3 q=34.8 size=       0KiB time=00:00:00.50 bitrate=   0.7kbits/s speed=0.00932x elapsed=0:00:53.66    \nframe=   17 fps=0.3 q=34.8 size=       0KiB time=00:00:00.50 bitrate=   0.7kbits/s speed=0.00923x elapsed=0:00:54.19    \nframe=   17 fps=0.3 q=34.8 size=       0KiB time=00:00:00.50 bitrate=   0.7kbits/s speed=0.00913x elapsed=0:00:54.73    \nframe=   17 fps=0.3 q=34.8 size=       0KiB time=00:00:00.50 bitrate=   0.7kbits/s speed=0.00905x elapsed=0:00:55.25    \nframe=   18 fps=0.3 q=34.1 size=       0KiB time=00:00:00.53 bitrate=   0.7kbits/s speed=0.00956x elapsed=0:00:55.79    \nframe=   18 fps=0.3 q=34.1 size=       0KiB time=00:00:00.53 bitrate=   0.7kbits/s speed=0.00947x elapsed=0:00:56.31    \nframe=   18 fps=0.3 q=34.1 size=       0KiB time=00:00:00.53 bitrate=   0.7kbits/s speed=0.00938x elapsed=0:00:56.83    \nframe=   18 fps=0.3 q=34.1 size=       0KiB time=00:00:00.53 bitrate=   0.7kbits/s speed=0.0093x elapsed=0:00:57.34    \nframe=   19 fps=0.3 q=30.1 size=       0KiB time=00:00:00.56 bitrate=   0.6kbits/s speed=0.00979x elapsed=0:00:57.85    \nframe=   19 fps=0.3 q=30.1 size=       0KiB time=00:00:00.56 bitrate=   0.6kbits/s speed=0.0097x elapsed=0:00:58.41    \nframe=   19 fps=0.3 q=30.1 size=       0KiB time=00:00:00.56 bitrate=   0.6kbits/s speed=0.00961x elapsed=0:00:58.95    \nframe=   19 fps=0.3 q=30.1 size=       0KiB time=00:00:00.56 bitrate=   0.6kbits/s speed=0.00953x elapsed=0:00:59.47    \nframe=   19 fps=0.3 q=30.1 size=       0KiB time=00:00:00.56 bitrate=   0.6kbits/s speed=0.00944x elapsed=0:01:00.00    \nframe=   20 fps=0.3 q=32.2 size=       0KiB time=00:00:00.60 bitrate=   0.6kbits/s speed=0.00992x elapsed=0:01:00.51    \nframe=   20 fps=0.3 q=32.2 size=       0KiB time=00:00:00.60 bitrate=   0.6kbits/s speed=0.00983x elapsed=0:01:01.03    \nframe=   20 fps=0.3 q=32.2 size=       0KiB time=00:00:00.60 bitrate=   0.6kbits/s speed=0.00975x elapsed=0:01:01.56    \nframe=   21 fps=0.3 q=33.9 size=       0KiB time=00:00:00.63 bitrate=   0.6kbits/s speed=0.0102x elapsed=0:01:02.07    \nframe=   21 fps=0.3 q=33.9 size=       0KiB time=00:00:00.63 bitrate=   0.6kbits/s speed=0.0101x elapsed=0:01:02.60    \nframe=   21 fps=0.3 q=33.9 size=       0KiB time=00:00:00.63 bitrate=   0.6kbits/s speed=0.01x elapsed=0:01:03.12    \nframe=   21 fps=0.3 q=33.9 size=       0KiB time=00:00:00.63 bitrate=   0.6kbits/s speed=0.00995x elapsed=0:01:03.64    \nframe=   21 fps=0.3 q=33.9 size=       0KiB time=00:00:00.63 bitrate=   0.6kbits/s speed=0.00987x elapsed=0:01:04.16    \nframe=   21 fps=0.3 q=33.9 size=       0KiB time=00:00:00.63 bitrate=   0.6kbits/s speed=0.00979x elapsed=0:01:04.67    \nframe=   22 fps=0.3 q=29.8 size=       0KiB time=00:00:00.66 bitrate=   0.5kbits/s speed=0.0102x elapsed=0:01:05.20    \nframe=   22 fps=0.3 q=29.8 size=       0KiB time=00:00:00.66 bitrate=   0.5kbits/s speed=0.0101x elapsed=0:01:05.74    \nframe=   22 fps=0.3 q=29.8 size=       0KiB time=00:00:00.66 bitrate=   0.5kbits/s speed=0.0101x elapsed=0:01:06.26    \nframe=   23 fps=0.3 q=33.3 size=       0KiB time=00:00:00.70 bitrate=   0.5kbits/s speed=0.0105x elapsed=0:01:06.79    \nframe=   23 fps=0.3 q=33.3 size=       0KiB time=00:00:00.70 bitrate=   0.5kbits/s speed=0.0104x elapsed=0:01:07.29    \nframe=   23 fps=0.3 q=33.3 size=       0KiB time=00:00:00.70 bitrate=   0.5kbits/s speed=0.0103x elapsed=0:01:07.81    \nframe=   23 fps=0.3 q=33.3 size=       0KiB time=00:00:00.70 bitrate=   0.5kbits/s speed=0.0102x elapsed=0:01:08.35    \nframe=   24 fps=0.3 q=30.1 size=       0KiB time=00:00:00.73 bitrate=   0.5kbits/s speed=0.0106x elapsed=0:01:08.87    \nframe=   24 fps=0.3 q=30.1 size=       0KiB time=00:00:00.73 bitrate=   0.5kbits/s speed=0.0106x elapsed=0:01:09.38    \nframe=   24 fps=0.3 q=30.1 size=       0KiB time=00:00:00.73 bitrate=   0.5kbits/s speed=0.0105x elapsed=0:01:09.91    \nframe=   24 fps=0.3 q=30.1 size=       0KiB time=00:00:00.73 bitrate=   0.5kbits/s speed=0.0104x elapsed=0:01:10.42    \nframe=   25 fps=0.4 q=31.1 size=       0KiB time=00:00:00.76 bitrate=   0.5kbits/s speed=0.0108x elapsed=0:01:10.94    \nframe=   25 fps=0.3 q=31.1 size=       0KiB time=00:00:00.76 bitrate=   0.5kbits/s speed=0.0107x elapsed=0:01:11.45    \nframe=   26 fps=0.4 q=33.3 size=       0KiB time=00:00:00.80 bitrate=   0.4kbits/s speed=0.0111x elapsed=0:01:11.98    \nframe=   26 fps=0.4 q=33.3 size=       0KiB time=00:00:00.80 bitrate=   0.4kbits/s speed=0.011x elapsed=0:01:12.50    \nframe=   26 fps=0.4 q=33.3 size=       0KiB time=00:00:00.80 bitrate=   0.4kbits/s speed=0.011x elapsed=0:01:13.03    \nframe=   26 fps=0.4 q=33.3 size=       0KiB time=00:00:00.80 bitrate=   0.4kbits/s speed=0.0109x elapsed=0:01:13.56    \nframe=   26 fps=0.4 q=33.3 size=       0KiB time=00:00:00.80 bitrate=   0.4kbits/s speed=0.0108x elapsed=0:01:14.07    \nframe=   27 fps=0.4 q=29.9 size=     256KiB time=00:00:00.83 bitrate=2517.0kbits/s speed=0.0112x elapsed=0:01:14.59    \nframe=   27 fps=0.4 q=29.9 size=     256KiB time=00:00:00.83 bitrate=2517.0kbits/s speed=0.0111x elapsed=0:01:15.10    \nframe=   27 fps=0.4 q=29.9 size=     256KiB time=00:00:00.83 bitrate=2517.0kbits/s speed=0.011x elapsed=0:01:15.62    \nframe=   28 fps=0.4 q=33.1 size=     256KiB time=00:00:00.86 bitrate=2420.2kbits/s speed=0.0114x elapsed=0:01:16.14    \nframe=   28 fps=0.4 q=33.1 size=     256KiB time=00:00:00.86 bitrate=2420.2kbits/s speed=0.0113x elapsed=0:01:16.65    \nframe=   28 fps=0.4 q=33.1 size=     256KiB time=00:00:00.86 bitrate=2420.2kbits/s speed=0.0112x elapsed=0:01:17.18    \nframe=   28 fps=0.4 q=33.1 size=     256KiB time=00:00:00.86 bitrate=2420.2kbits/s speed=0.0112x elapsed=0:01:17.70    \nframe=   29 fps=0.4 q=30.0 size=     256KiB time=00:00:00.90 bitrate=2330.6kbits/s speed=0.0115x elapsed=0:01:18.24    \nframe=   29 fps=0.4 q=30.0 size=     256KiB time=00:00:00.90 bitrate=2330.6kbits/s speed=0.0114x elapsed=0:01:18.74    \nframe=   29 fps=0.4 q=30.0 size=     256KiB time=00:00:00.90 bitrate=2330.6kbits/s speed=0.0114x elapsed=0:01:19.26    \nframe=   29 fps=0.4 q=30.0 size=     256KiB time=00:00:00.90 bitrate=2330.6kbits/s speed=0.0113x elapsed=0:01:19.79    \nframe=   29 fps=0.4 q=30.0 size=     256KiB time=00:00:00.90 bitrate=2330.6kbits/s speed=0.0112x elapsed=0:01:20.36    \nframe=   29 fps=0.4 q=30.0 size=     256KiB time=00:00:00.90 bitrate=2330.6kbits/s speed=0.0111x elapsed=0:01:20.94    \nframe=   29 fps=0.4 q=30.0 size=     256KiB time=00:00:00.90 bitrate=2330.6kbits/s speed=0.011x elapsed=0:01:21.57    \nframe=   29 fps=0.4 q=30.0 size=     256KiB time=00:00:00.90 bitrate=2330.6kbits/s speed=0.011x elapsed=0:01:22.15    \nframe=   30 fps=0.4 q=33.0 size=     256KiB time=00:00:00.93 bitrate=2247.3kbits/s speed=0.0113x elapsed=0:01:22.69    \nframe=   30 fps=0.4 q=33.0 size=     256KiB time=00:00:00.93 bitrate=2247.3kbits/s speed=0.0112x elapsed=0:01:23.24    \nframe=   30 fps=0.4 q=33.0 size=     256KiB time=00:00:00.93 bitrate=2247.3kbits/s speed=0.0111x elapsed=0:01:23.76    \nframe=   30 fps=0.4 q=33.0 size=     256KiB time=00:00:00.93 bitrate=2247.3kbits/s speed=0.0111x elapsed=0:01:24.32    \nframe=   30 fps=0.4 q=33.0 size=     256KiB time=00:00:00.93 bitrate=2247.3kbits/s speed=0.011x elapsed=0:01:24.88    \nframe=   30 fps=0.4 q=33.0 size=     256KiB time=00:00:00.93 bitrate=2247.3kbits/s speed=0.0109x elapsed=0:01:25.39    \nframe=   30 fps=0.3 q=33.0 size=     256KiB time=00:00:00.93 bitrate=2247.3kbits/s speed=0.0109x elapsed=0:01:25.90    \nframe=   30 fps=0.3 q=33.0 size=     256KiB time=00:00:00.93 bitrate=2247.3kbits/s speed=0.0108x elapsed=0:01:26.42    \nframe=   31 fps=0.4 q=29.6 size=     256KiB time=00:00:00.96 bitrate=2169.8kbits/s speed=0.0111x elapsed=0:01:26.93    \nframe=   31 fps=0.4 q=29.6 size=     256KiB time=00:00:00.96 bitrate=2169.8kbits/s speed=0.0111x elapsed=0:01:27.47    \nframe=   31 fps=0.4 q=29.6 size=     256KiB time=00:00:00.96 bitrate=2169.8kbits/s speed=0.011x elapsed=0:01:28.04    \nframe=   31 fps=0.4 q=29.6 size=     256KiB time=00:00:00.96 bitrate=2169.8kbits/s speed=0.0109x elapsed=0:01:28.56    \nframe=   31 fps=0.3 q=29.6 size=     256KiB time=00:00:00.96 bitrate=2169.8kbits/s speed=0.0109x elapsed=0:01:29.08    \nframe=   31 fps=0.3 q=29.6 size=     256KiB time=00:00:00.96 bitrate=2169.8kbits/s speed=0.0108x elapsed=0:01:29.61    \nframe=   31 fps=0.3 q=29.6 size=     256KiB time=00:00:00.96 bitrate=2169.8kbits/s speed=0.0107x elapsed=0:01:30.14    \nframe=   31 fps=0.3 q=29.6 size=     256KiB time=00:00:00.96 bitrate=2169.8kbits/s speed=0.0107x elapsed=0:01:30.66    \nframe=   32 fps=0.4 q=31.5 size=     256KiB time=00:00:01.00 bitrate=2097.5kbits/s speed=0.011x elapsed=0:01:31.20    \nframe=   32 fps=0.3 q=31.5 size=     256KiB time=00:00:01.00 bitrate=2097.5kbits/s speed=0.0109x elapsed=0:01:31.73    \nframe=   32 fps=0.3 q=31.5 size=     256KiB time=00:00:01.00 bitrate=2097.5kbits/s speed=0.0108x elapsed=0:01:32.26    \nframe=   33 fps=0.4 q=33.1 size=     256KiB time=00:00:01.03 bitrate=2029.8kbits/s speed=0.0111x elapsed=0:01:32.80    \nframe=   33 fps=0.4 q=33.1 size=     256KiB time=00:00:01.03 bitrate=2029.8kbits/s speed=0.0111x elapsed=0:01:33.35    \nframe=   33 fps=0.4 q=33.1 size=     256KiB time=00:00:01.03 bitrate=2029.8kbits/s speed=0.011x elapsed=0:01:33.85    \nframe=   33 fps=0.3 q=33.1 size=     256KiB time=00:00:01.03 bitrate=2029.8kbits/s speed=0.0109x elapsed=0:01:34.39    \nframe=   33 fps=0.3 q=33.1 size=     256KiB time=00:00:01.03 bitrate=2029.8kbits/s speed=0.0109x elapsed=0:01:34.92    \nframe=   34 fps=0.4 q=29.3 size=     256KiB time=00:00:01.06 bitrate=1966.4kbits/s speed=0.0112x elapsed=0:01:35.44    \nframe=   34 fps=0.4 q=29.3 size=     256KiB time=00:00:01.06 bitrate=1966.4kbits/s speed=0.0111x elapsed=0:01:36.00    \nframe=   34 fps=0.4 q=29.3 size=     256KiB time=00:00:01.06 bitrate=1966.4kbits/s speed=0.011x elapsed=0:01:36.53    \nframe=   34 fps=0.4 q=29.3 size=     256KiB time=00:00:01.06 bitrate=1966.4kbits/s speed=0.011x elapsed=0:01:37.07    \nframe=   34 fps=0.3 q=29.3 size=     256KiB time=00:00:01.06 bitrate=1966.4kbits/s speed=0.0109x elapsed=0:01:37.68    \nframe=   34 fps=0.3 q=29.3 size=     256KiB time=00:00:01.06 bitrate=1966.4kbits/s speed=0.0109x elapsed=0:01:38.23    \nframe=   34 fps=0.3 q=29.3 size=     256KiB time=00:00:01.06 bitrate=1966.4kbits/s speed=0.0108x elapsed=0:01:38.77    \nframe=   34 fps=0.3 q=29.3 size=     256KiB time=00:00:01.06 bitrate=1966.4kbits/s speed=0.0107x elapsed=0:01:39.33    \nframe=   35 fps=0.4 q=29.4 size=     256KiB time=00:00:01.10 bitrate=1906.8kbits/s speed=0.011x elapsed=0:01:39.88    \nframe=   35 fps=0.3 q=29.4 size=     256KiB time=00:00:01.10 bitrate=1906.8kbits/s speed=0.011x elapsed=0:01:40.40    \nframe=   35 fps=0.3 q=29.4 size=     256KiB time=00:00:01.10 bitrate=1906.8kbits/s speed=0.0109x elapsed=0:01:40.94    \nframe=   35 fps=0.3 q=29.4 size=     256KiB time=00:00:01.10 bitrate=1906.8kbits/s speed=0.0108x elapsed=0:01:41.54    \nframe=   35 fps=0.3 q=29.4 size=     256KiB time=00:00:01.10 bitrate=1906.8kbits/s speed=0.0108x elapsed=0:01:42.07    \nframe=   35 fps=0.3 q=29.4 size=     256KiB time=00:00:01.10 bitrate=1906.8kbits/s speed=0.0107x elapsed=0:01:42.61    \nframe=   35 fps=0.3 q=29.4 size=     256KiB time=00:00:01.10 bitrate=1906.8kbits/s speed=0.0107x elapsed=0:01:43.13    \nframe=   35 fps=0.3 q=29.4 size=     256KiB time=00:00:01.10 bitrate=1906.8kbits/s speed=0.0106x elapsed=0:01:43.71    \nframe=   35 fps=0.3 q=29.4 size=     256KiB time=00:00:01.10 bitrate=1906.8kbits/s speed=0.0106x elapsed=0:01:44.25    \nframe=   36 fps=0.3 q=32.7 size=     256KiB time=00:00:01.13 bitrate=1850.7kbits/s speed=0.0108x elapsed=0:01:44.80    \nframe=   36 fps=0.3 q=32.7 size=     256KiB time=00:00:01.13 bitrate=1850.7kbits/s speed=0.0108x elapsed=0:01:45.38    \nframe=   36 fps=0.3 q=32.7 size=     256KiB time=00:00:01.13 bitrate=1850.7kbits/s speed=0.0107x elapsed=0:01:45.95    \nframe=   36 fps=0.3 q=32.7 size=     256KiB time=00:00:01.13 bitrate=1850.7kbits/s speed=0.0106x elapsed=0:01:46.48    \nframe=   36 fps=0.3 q=32.7 size=     256KiB time=00:00:01.13 bitrate=1850.7kbits/s speed=0.0106x elapsed=0:01:47.02    \nframe=   37 fps=0.3 q=29.5 size=     256KiB time=00:00:01.16 bitrate=1797.9kbits/s speed=0.0108x elapsed=0:01:47.56    \nframe=   37 fps=0.3 q=29.5 size=     256KiB time=00:00:01.16 bitrate=1797.9kbits/s speed=0.0108x elapsed=0:01:48.09    \nframe=   38 fps=0.3 q=30.7 size=     256KiB time=00:00:01.20 bitrate=1747.9kbits/s speed=0.011x elapsed=0:01:48.65    \nframe=   38 fps=0.3 q=30.7 size=     256KiB time=00:00:01.20 bitrate=1747.9kbits/s speed=0.011x elapsed=0:01:49.22    \nframe=   38 fps=0.3 q=30.7 size=     256KiB time=00:00:01.20 bitrate=1747.9kbits/s speed=0.0109x elapsed=0:01:49.74    \nframe=   38 fps=0.3 q=30.7 size=     256KiB time=00:00:01.20 bitrate=1747.9kbits/s speed=0.0109x elapsed=0:01:50.31    \nframe=   38 fps=0.3 q=30.7 size=     256KiB time=00:00:01.20 bitrate=1747.9kbits/s speed=0.0108x elapsed=0:01:50.89    \nframe=   38 fps=0.3 q=30.7 size=     256KiB time=00:00:01.20 bitrate=1747.9kbits/s speed=0.0108x elapsed=0:01:51.44    \nframe=   38 fps=0.3 q=30.7 size=     256KiB time=00:00:01.20 bitrate=1747.9kbits/s speed=0.0107x elapsed=0:01:51.96    \nframe=   38 fps=0.3 q=30.7 size=     256KiB time=00:00:01.20 bitrate=1747.9kbits/s speed=0.0107x elapsed=0:01:52.49    \nframe=   38 fps=0.3 q=30.7 size=     256KiB time=00:00:01.20 bitrate=1747.9kbits/s speed=0.0106x elapsed=0:01:53.07    \nframe=   38 fps=0.3 q=30.7 size=     256KiB time=00:00:01.20 bitrate=1747.9kbits/s speed=0.0106x elapsed=0:01:53.62    \nframe=   38 fps=0.3 q=30.7 size=     256KiB time=00:00:01.20 bitrate=1747.9kbits/s speed=0.0105x elapsed=0:01:54.16    \nframe=   38 fps=0.3 q=30.7 size=     256KiB time=00:00:01.20 bitrate=1747.9kbits/s speed=0.0105x elapsed=0:01:54.70    \nframe=   39 fps=0.3 q=32.8 size=     256KiB time=00:00:01.23 bitrate=1700.7kbits/s speed=0.0107x elapsed=0:01:55.27    \nframe=   39 fps=0.3 q=32.8 size=     256KiB time=00:00:01.23 bitrate=1700.7kbits/s speed=0.0106x elapsed=0:01:55.84    \nframe=   39 fps=0.3 q=32.8 size=     256KiB time=00:00:01.23 bitrate=1700.7kbits/s speed=0.0106x elapsed=0:01:56.41    \nframe=   39 fps=0.3 q=32.8 size=     256KiB time=00:00:01.23 bitrate=1700.7kbits/s speed=0.0105x elapsed=0:01:56.96    \nframe=   39 fps=0.3 q=32.8 size=     256KiB time=00:00:01.23 bitrate=1700.7kbits/s speed=0.0105x elapsed=0:01:57.50    \nframe=   39 fps=0.3 q=32.8 size=     256KiB time=00:00:01.23 bitrate=1700.7kbits/s speed=0.0104x elapsed=0:01:58.08    \nframe=   39 fps=0.3 q=32.8 size=     256KiB time=00:00:01.23 bitrate=1700.7kbits/s speed=0.0104x elapsed=0:01:58.63    \nframe=   39 fps=0.3 q=32.8 size=     256KiB time=00:00:01.23 bitrate=1700.7kbits/s speed=0.0103x elapsed=0:01:59.26    \nframe=   39 fps=0.3 q=32.8 size=     256KiB time=00:00:01.23 bitrate=1700.7kbits/s speed=0.0103x elapsed=0:01:59.82    \nframe=   39 fps=0.3 q=32.8 size=     256KiB time=00:00:01.23 bitrate=1700.7kbits/s speed=0.0102x elapsed=0:02:00.43    \nframe=   39 fps=0.3 q=32.8 size=     256KiB time=00:00:01.23 bitrate=1700.7kbits/s speed=0.0102x elapsed=0:02:01.02    \nframe=   40 fps=0.3 q=32.5 size=     256KiB time=00:00:01.26 bitrate=1655.9kbits/s speed=0.0104x elapsed=0:02:01.63    \nframe=   40 fps=0.3 q=32.5 size=     256KiB time=00:00:01.26 bitrate=1655.9kbits/s speed=0.0104x elapsed=0:02:02.19    \nframe=   40 fps=0.3 q=32.5 size=     256KiB time=00:00:01.26 bitrate=1655.9kbits/s speed=0.0103x elapsed=0:02:02.74    \nframe=   40 fps=0.3 q=32.5 size=     256KiB time=00:00:01.26 bitrate=1655.9kbits/s speed=0.0103x elapsed=0:02:03.31    \nframe=   40 fps=0.3 q=32.5 size=     256KiB time=00:00:01.26 bitrate=1655.9kbits/s speed=0.0102x elapsed=0:02:03.89    \nframe=   40 fps=0.3 q=32.5 size=     256KiB time=00:00:01.26 bitrate=1655.9kbits/s speed=0.0102x elapsed=0:02:04.41    \nframe=   41 fps=0.3 q=29.2 size=     256KiB time=00:00:01.30 bitrate=1613.5kbits/s speed=0.0104x elapsed=0:02:04.93    \nframe=   41 fps=0.3 q=29.2 size=     256KiB time=00:00:01.30 bitrate=1613.5kbits/s speed=0.0104x elapsed=0:02:05.46    \nframe=   41 fps=0.3 q=29.2 size=     256KiB time=00:00:01.30 bitrate=1613.5kbits/s speed=0.0103x elapsed=0:02:05.96    \nframe=   42 fps=0.3 q=30.8 size=     256KiB time=00:00:01.33 bitrate=1573.1kbits/s speed=0.0105x elapsed=0:02:06.49    \nframe=   42 fps=0.3 q=30.8 size=     256KiB time=00:00:01.33 bitrate=1573.1kbits/s speed=0.0105x elapsed=0:02:07.04    \nframe=   42 fps=0.3 q=30.8 size=     256KiB time=00:00:01.33 bitrate=1573.1kbits/s speed=0.0105x elapsed=0:02:07.56    \nframe=   42 fps=0.3 q=30.8 size=     256KiB time=00:00:01.33 bitrate=1573.1kbits/s speed=0.0104x elapsed=0:02:08.08    \nframe=   42 fps=0.3 q=30.8 size=     256KiB time=00:00:01.33 bitrate=1573.1kbits/s speed=0.0104x elapsed=0:02:08.60    \nframe=   42 fps=0.3 q=30.8 size=     256KiB time=00:00:01.33 bitrate=1573.1kbits/s speed=0.0103x elapsed=0:02:09.13    \nframe=   43 fps=0.3 q=32.5 size=     256KiB time=00:00:01.36 bitrate=1534.8kbits/s speed=0.0105x elapsed=0:02:09.70    \nframe=   43 fps=0.3 q=32.5 size=     256KiB time=00:00:01.36 bitrate=1534.8kbits/s speed=0.0105x elapsed=0:02:10.21    \nframe=   43 fps=0.3 q=32.5 size=     256KiB time=00:00:01.36 bitrate=1534.8kbits/s speed=0.0105x elapsed=0:02:10.74    \nframe=   43 fps=0.3 q=32.5 size=     256KiB time=00:00:01.36 bitrate=1534.8kbits/s speed=0.0104x elapsed=0:02:11.26    \nframe=   43 fps=0.3 q=32.5 size=     256KiB time=00:00:01.36 bitrate=1534.8kbits/s speed=0.0104x elapsed=0:02:11.78    \nframe=   43 fps=0.3 q=32.5 size=     256KiB time=00:00:01.36 bitrate=1534.8kbits/s speed=0.0103x elapsed=0:02:12.31    \nframe=   44 fps=0.3 q=32.5 size=     256KiB time=00:00:01.40 bitrate=1498.2kbits/s speed=0.0105x elapsed=0:02:12.86    \nframe=   44 fps=0.3 q=32.5 size=     256KiB time=00:00:01.40 bitrate=1498.2kbits/s speed=0.0105x elapsed=0:02:13.42    \nframe=   44 fps=0.3 q=32.5 size=     256KiB time=00:00:01.40 bitrate=1498.2kbits/s speed=0.0105x elapsed=0:02:13.94    \nframe=   45 fps=0.3 q=29.0 size=     256KiB time=00:00:01.43 bitrate=1463.4kbits/s speed=0.0107x elapsed=0:02:14.44    \nframe=   45 fps=0.3 q=29.0 size=     256KiB time=00:00:01.43 bitrate=1463.4kbits/s speed=0.0106x elapsed=0:02:14.97    \nframe=   45 fps=0.3 q=29.0 size=     256KiB time=00:00:01.43 bitrate=1463.4kbits/s speed=0.0106x elapsed=0:02:15.50    \nframe=   45 fps=0.3 q=29.0 size=     256KiB time=00:00:01.43 bitrate=1463.4kbits/s speed=0.0105x elapsed=0:02:16.01    \nframe=   45 fps=0.3 q=29.0 size=     256KiB time=00:00:01.43 bitrate=1463.4kbits/s speed=0.0105x elapsed=0:02:16.56    \nframe=   45 fps=0.3 q=29.0 size=     256KiB time=00:00:01.43 bitrate=1463.4kbits/s speed=0.0105x elapsed=0:02:17.08    \nframe=   45 fps=0.3 q=29.0 size=     256KiB time=00:00:01.43 bitrate=1463.4kbits/s speed=0.0104x elapsed=0:02:17.59    \nframe=   46 fps=0.3 q=30.3 size=     256KiB time=00:00:01.46 bitrate=1430.1kbits/s speed=0.0106x elapsed=0:02:18.11    \nframe=   46 fps=0.3 q=30.3 size=     256KiB time=00:00:01.46 bitrate=1430.1kbits/s speed=0.0106x elapsed=0:02:18.62    \nframe=   46 fps=0.3 q=30.3 size=     256KiB time=00:00:01.46 bitrate=1430.1kbits/s speed=0.0105x elapsed=0:02:19.14    \nframe=   46 fps=0.3 q=30.3 size=     256KiB time=00:00:01.46 bitrate=1430.1kbits/s speed=0.0105x elapsed=0:02:19.66    \nframe=   46 fps=0.3 q=30.3 size=     256KiB time=00:00:01.46 bitrate=1430.1kbits/s speed=0.0105x elapsed=0:02:20.18    \nframe=   47 fps=0.3 q=32.3 size=     256KiB time=00:00:01.50 bitrate=1398.3kbits/s speed=0.0107x elapsed=0:02:20.70    \nframe=   47 fps=0.3 q=32.3 size=     256KiB time=00:00:01.50 bitrate=1398.3kbits/s speed=0.0106x elapsed=0:02:21.21    \nframe=   47 fps=0.3 q=32.3 size=     256KiB time=00:00:01.50 bitrate=1398.3kbits/s speed=0.0106x elapsed=0:02:21.74    \nframe=   47 fps=0.3 q=32.3 size=     256KiB time=00:00:01.50 bitrate=1398.3kbits/s speed=0.0105x elapsed=0:02:22.26    \nframe=   48 fps=0.3 q=29.0 size=     512KiB time=00:00:01.53 bitrate=2735.6kbits/s speed=0.0107x elapsed=0:02:22.80    \nframe=   48 fps=0.3 q=29.0 size=     512KiB time=00:00:01.53 bitrate=2735.6kbits/s speed=0.0107x elapsed=0:02:23.33    \nframe=   48 fps=0.3 q=29.0 size=     512KiB time=00:00:01.53 bitrate=2735.6kbits/s speed=0.0107x elapsed=0:02:23.85    \nframe=   48 fps=0.3 q=29.0 size=     512KiB time=00:00:01.53 bitrate=2735.6kbits/s speed=0.0106x elapsed=0:02:24.38    \nframe=   48 fps=0.3 q=29.0 size=     512KiB time=00:00:01.53 bitrate=2735.6kbits/s speed=0.0106x elapsed=0:02:24.91    \nframe=   49 fps=0.3 q=29.6 size=     512KiB time=00:00:01.56 bitrate=2677.4kbits/s speed=0.0108x elapsed=0:02:25.43    \nframe=   49 fps=0.3 q=29.6 size=     512KiB time=00:00:01.56 bitrate=2677.4kbits/s speed=0.0107x elapsed=0:02:25.95    \nframe=   49 fps=0.3 q=29.6 size=     512KiB time=00:00:01.56 bitrate=2677.4kbits/s speed=0.0107x elapsed=0:02:26.48    \nframe=   49 fps=0.3 q=29.6 size=     512KiB time=00:00:01.56 bitrate=2677.4kbits/s speed=0.0107x elapsed=0:02:27.01    \nframe=   49 fps=0.3 q=29.6 size=     512KiB time=00:00:01.56 bitrate=2677.4kbits/s speed=0.0106x elapsed=0:02:27.52    \nframe=   49 fps=0.3 q=29.6 size=     512KiB time=00:00:01.56 bitrate=2677.4kbits/s speed=0.0106x elapsed=0:02:28.06    \nframe=   50 fps=0.3 q=33.2 size=     512KiB time=00:00:01.60 bitrate=2621.7kbits/s speed=0.0108x elapsed=0:02:28.62    \nframe=   51 fps=0.3 q=29.5 size=     512KiB time=00:00:01.63 bitrate=2568.2kbits/s speed=0.011x elapsed=0:02:29.15    \nframe=   51 fps=0.3 q=29.5 size=     512KiB time=00:00:01.63 bitrate=2568.2kbits/s speed=0.0109x elapsed=0:02:29.69    \nframe=   51 fps=0.3 q=29.5 size=     512KiB time=00:00:01.63 bitrate=2568.2kbits/s speed=0.0109x elapsed=0:02:30.19    \nframe=   51 fps=0.3 q=29.5 size=     512KiB time=00:00:01.63 bitrate=2568.2kbits/s speed=0.0108x elapsed=0:02:30.71    \nframe=   52 fps=0.3 q=30.8 size=     512KiB time=00:00:01.66 bitrate=2516.8kbits/s speed=0.011x elapsed=0:02:31.23    \nframe=   52 fps=0.3 q=30.8 size=     512KiB time=00:00:01.66 bitrate=2516.8kbits/s speed=0.011x elapsed=0:02:31.75    \nframe=   52 fps=0.3 q=30.8 size=     512KiB time=00:00:01.66 bitrate=2516.8kbits/s speed=0.0109x elapsed=0:02:32.26    \nframe=   52 fps=0.3 q=30.8 size=     512KiB time=00:00:01.66 bitrate=2516.8kbits/s speed=0.0109x elapsed=0:02:32.79    \nframe=   53 fps=0.3 q=32.8 size=     512KiB time=00:00:01.70 bitrate=2467.4kbits/s speed=0.0111x elapsed=0:02:33.31    \nframe=   53 fps=0.3 q=32.8 size=     512KiB time=00:00:01.70 bitrate=2467.4kbits/s speed=0.0111x elapsed=0:02:33.82    \nframe=   53 fps=0.3 q=32.8 size=     512KiB time=00:00:01.70 bitrate=2467.4kbits/s speed=0.011x elapsed=0:02:34.34    \nframe=   54 fps=0.3 q=32.5 size=     512KiB time=00:00:01.73 bitrate=2420.0kbits/s speed=0.0112x elapsed=0:02:34.90    \nframe=   54 fps=0.3 q=32.5 size=     512KiB time=00:00:01.73 bitrate=2420.0kbits/s speed=0.0112x elapsed=0:02:35.45    \nframe=   54 fps=0.3 q=32.5 size=     512KiB time=00:00:01.73 bitrate=2420.0kbits/s speed=0.0111x elapsed=0:02:35.97    \nframe=   54 fps=0.3 q=32.5 size=     512KiB time=00:00:01.73 bitrate=2420.0kbits/s speed=0.0111x elapsed=0:02:36.48    \nframe=   54 fps=0.3 q=32.5 size=     512KiB time=00:00:01.73 bitrate=2420.0kbits/s speed=0.011x elapsed=0:02:37.01    \nframe=   54 fps=0.3 q=32.5 size=     512KiB time=00:00:01.73 bitrate=2420.0kbits/s speed=0.011x elapsed=0:02:37.54    \nframe=   55 fps=0.3 q=28.9 size=     512KiB time=00:00:01.76 bitrate=2374.3kbits/s speed=0.0112x elapsed=0:02:38.06    \nframe=   55 fps=0.3 q=28.9 size=     512KiB time=00:00:01.76 bitrate=2374.3kbits/s speed=0.0111x elapsed=0:02:38.58    \nframe=   56 fps=0.4 q=30.7 size=     512KiB time=00:00:01.80 bitrate=2330.4kbits/s speed=0.0113x elapsed=0:02:39.09    \nframe=   56 fps=0.4 q=30.7 size=     512KiB time=00:00:01.80 bitrate=2330.4kbits/s speed=0.0113x elapsed=0:02:39.63    \nframe=   56 fps=0.3 q=30.7 size=     512KiB time=00:00:01.80 bitrate=2330.4kbits/s speed=0.0112x elapsed=0:02:40.14    \nframe=   56 fps=0.3 q=30.7 size=     512KiB time=00:00:01.80 bitrate=2330.4kbits/s speed=0.0112x elapsed=0:02:40.66    \nframe=   56 fps=0.3 q=30.7 size=     512KiB time=00:00:01.80 bitrate=2330.4kbits/s speed=0.0112x elapsed=0:02:41.18    \nframe=   56 fps=0.3 q=30.7 size=     512KiB time=00:00:01.80 bitrate=2330.4kbits/s speed=0.0111x elapsed=0:02:41.70    \nframe=   56 fps=0.3 q=30.7 size=     512KiB time=00:00:01.80 bitrate=2330.4kbits/s speed=0.0111x elapsed=0:02:42.28    \nframe=   56 fps=0.3 q=30.7 size=     512KiB time=00:00:01.80 bitrate=2330.4kbits/s speed=0.0111x elapsed=0:02:42.86    \nframe=   57 fps=0.3 q=32.7 size=     512KiB time=00:00:01.83 bitrate=2288.0kbits/s speed=0.0112x elapsed=0:02:43.39    \nframe=   57 fps=0.3 q=32.7 size=     512KiB time=00:00:01.83 bitrate=2288.0kbits/s speed=0.0112x elapsed=0:02:43.92    \nframe=   57 fps=0.3 q=32.7 size=     512KiB time=00:00:01.83 bitrate=2288.0kbits/s speed=0.0111x elapsed=0:02:44.45    \nframe=   57 fps=0.3 q=32.7 size=     512KiB time=00:00:01.83 bitrate=2288.0kbits/s speed=0.0111x elapsed=0:02:45.09    \nframe=   57 fps=0.3 q=32.7 size=     512KiB time=00:00:01.83 bitrate=2288.0kbits/s speed=0.0111x elapsed=0:02:45.76    \nframe=   57 fps=0.3 q=32.7 size=     512KiB time=00:00:01.83 bitrate=2288.0kbits/s speed=0.011x elapsed=0:02:46.37    \nframe=   57 fps=0.3 q=32.7 size=     512KiB time=00:00:01.83 bitrate=2288.0kbits/s speed=0.011x elapsed=0:02:46.93    \nframe=   57 fps=0.3 q=32.7 size=     512KiB time=00:00:01.83 bitrate=2288.0kbits/s speed=0.0109x elapsed=0:02:47.50    \nframe=   57 fps=0.3 q=32.7 size=     512KiB time=00:00:01.83 bitrate=2288.0kbits/s speed=0.0109x elapsed=0:02:48.07    \nframe=   57 fps=0.3 q=32.7 size=     512KiB time=00:00:01.83 bitrate=2288.0kbits/s speed=0.0109x elapsed=0:02:48.59    \nframe=   57 fps=0.3 q=32.7 size=     512KiB time=00:00:01.83 bitrate=2288.0kbits/s speed=0.0108x elapsed=0:02:49.11    \nframe=   58 fps=0.3 q=28.8 size=     512KiB time=00:00:01.86 bitrate=2247.1kbits/s speed=0.011x elapsed=0:02:49.65    \nframe=   58 fps=0.3 q=28.8 size=     512KiB time=00:00:01.86 bitrate=2247.1kbits/s speed=0.011x elapsed=0:02:50.22    \nframe=   58 fps=0.3 q=28.8 size=     512KiB time=00:00:01.86 bitrate=2247.1kbits/s speed=0.0109x elapsed=0:02:50.81    \nframe=   58 fps=0.3 q=28.8 size=     512KiB time=00:00:01.86 bitrate=2247.1kbits/s speed=0.0109x elapsed=0:02:51.36    \nframe=   58 fps=0.3 q=28.8 size=     512KiB time=00:00:01.86 bitrate=2247.1kbits/s speed=0.0109x elapsed=0:02:51.92    \nframe=   58 fps=0.3 q=28.8 size=     512KiB time=00:00:01.86 bitrate=2247.1kbits/s speed=0.0108x elapsed=0:02:52.43    \nframe=   58 fps=0.3 q=28.8 size=     512KiB time=00:00:01.86 bitrate=2247.1kbits/s speed=0.0108x elapsed=0:02:52.97    \nframe=   58 fps=0.3 q=28.8 size=     512KiB time=00:00:01.86 bitrate=2247.1kbits/s speed=0.0108x elapsed=0:02:53.50    \nframe=   58 fps=0.3 q=28.8 size=     512KiB time=00:00:01.86 bitrate=2247.1kbits/s speed=0.0107x elapsed=0:02:54.02    \nframe=   58 fps=0.3 q=28.8 size=     512KiB time=00:00:01.86 bitrate=2247.1kbits/s speed=0.0107x elapsed=0:02:54.54    \nframe=   59 fps=0.3 q=31.1 size=     512KiB time=00:00:01.90 bitrate=2207.7kbits/s speed=0.0109x elapsed=0:02:55.09    \nframe=   59 fps=0.3 q=31.1 size=     512KiB time=00:00:01.90 bitrate=2207.7kbits/s speed=0.0108x elapsed=0:02:55.62    \nframe=   59 fps=0.3 q=31.1 size=     512KiB time=00:00:01.90 bitrate=2207.7kbits/s speed=0.0108x elapsed=0:02:56.16    \nframe=   60 fps=0.3 q=32.9 size=     512KiB time=00:00:01.93 bitrate=2169.7kbits/s speed=0.0109x elapsed=0:02:56.69    \nframe=   60 fps=0.3 q=32.9 size=     512KiB time=00:00:01.93 bitrate=2169.7kbits/s speed=0.0109x elapsed=0:02:57.25    \nframe=   60 fps=0.3 q=32.9 size=     512KiB time=00:00:01.93 bitrate=2169.7kbits/s speed=0.0109x elapsed=0:02:57.82    \nframe=   61 fps=0.3 q=32.5 size=     512KiB time=00:00:01.96 bitrate=2132.9kbits/s speed=0.011x elapsed=0:02:58.34    \nframe=   61 fps=0.3 q=32.5 size=     512KiB time=00:00:01.96 bitrate=2132.9kbits/s speed=0.011x elapsed=0:02:58.85    \nframe=   62 fps=0.3 q=32.9 size=     512KiB time=00:00:02.00 bitrate=2097.3kbits/s speed=0.0111x elapsed=0:02:59.38    \nframe=   63 fps=0.4 q=29.2 size=     512KiB time=00:00:02.03 bitrate=2062.9kbits/s speed=0.0113x elapsed=0:02:59.91    \nframe=   63 fps=0.3 q=29.2 size=     512KiB time=00:00:02.03 bitrate=2062.9kbits/s speed=0.0113x elapsed=0:03:00.43    \nframe=   63 fps=0.3 q=29.2 size=     512KiB time=00:00:02.03 bitrate=2062.9kbits/s speed=0.0112x elapsed=0:03:00.93    \nframe=   64 fps=0.4 q=33.0 size=     512KiB time=00:00:02.06 bitrate=2029.7kbits/s speed=0.0114x elapsed=0:03:01.46    \nframe=   65 fps=0.4 q=29.1 size=     512KiB time=00:00:02.10 bitrate=1997.5kbits/s speed=0.0115x elapsed=0:03:01.96    \nframe=   66 fps=0.4 q=31.4 size=     512KiB time=00:00:02.13 bitrate=1966.2kbits/s speed=0.0117x elapsed=0:03:02.50    \nframe=   66 fps=0.4 q=31.4 size=     512KiB time=00:00:02.13 bitrate=1966.2kbits/s speed=0.0117x elapsed=0:03:03.06    \nframe=   66 fps=0.4 q=31.4 size=     512KiB time=00:00:02.13 bitrate=1966.2kbits/s speed=0.0116x elapsed=0:03:03.58    \nframe=   67 fps=0.4 q=33.2 size=     512KiB time=00:00:02.16 bitrate=1936.0kbits/s speed=0.0118x elapsed=0:03:04.10    \nframe=   67 fps=0.4 q=33.2 size=     512KiB time=00:00:02.16 bitrate=1936.0kbits/s speed=0.0117x elapsed=0:03:04.63    \nframe=   67 fps=0.4 q=33.2 size=     512KiB time=00:00:02.16 bitrate=1936.0kbits/s speed=0.0117x elapsed=0:03:05.14    \nframe=   67 fps=0.4 q=33.2 size=     512KiB time=00:00:02.16 bitrate=1936.0kbits/s speed=0.0117x elapsed=0:03:05.68    \nframe=   68 fps=0.4 q=33.3 size=     768KiB time=00:00:02.20 bitrate=2859.9kbits/s speed=0.0118x elapsed=0:03:06.21    \nframe=   68 fps=0.4 q=33.3 size=     768KiB time=00:00:02.20 bitrate=2859.9kbits/s speed=0.0118x elapsed=0:03:06.74    \nframe=   69 fps=0.4 q=29.2 size=     768KiB time=00:00:02.23 bitrate=2817.2kbits/s speed=0.0119x elapsed=0:03:07.26    \nframe=   69 fps=0.4 q=29.2 size=     768KiB time=00:00:02.23 bitrate=2817.2kbits/s speed=0.0119x elapsed=0:03:07.78    \nframe=   70 fps=0.4 q=31.1 size=     768KiB time=00:00:02.26 bitrate=2775.8kbits/s speed=0.012x elapsed=0:03:08.30    \nframe=   70 fps=0.4 q=31.1 size=     768KiB time=00:00:02.26 bitrate=2775.8kbits/s speed=0.012x elapsed=0:03:08.82    \nframe=   71 fps=0.4 q=32.9 size=     768KiB time=00:00:02.30 bitrate=2735.6kbits/s speed=0.0121x elapsed=0:03:09.34    \nframe=   71 fps=0.4 q=32.9 size=     768KiB time=00:00:02.30 bitrate=2735.6kbits/s speed=0.0121x elapsed=0:03:09.86    \nframe=   71 fps=0.4 q=32.9 size=     768KiB time=00:00:02.30 bitrate=2735.6kbits/s speed=0.0121x elapsed=0:03:10.38    \nframe=   71 fps=0.4 q=32.9 size=     768KiB time=00:00:02.30 bitrate=2735.6kbits/s speed=0.012x elapsed=0:03:10.91    \nframe=   72 fps=0.4 q=32.8 size=     768KiB time=00:00:02.33 bitrate=2696.5kbits/s speed=0.0122x elapsed=0:03:11.42    \nframe=   72 fps=0.4 q=32.8 size=     768KiB time=00:00:02.33 bitrate=2696.5kbits/s speed=0.0122x elapsed=0:03:11.95    \nframe=   73 fps=0.4 q=28.6 size=     768KiB time=00:00:02.36 bitrate=2658.5kbits/s speed=0.0123x elapsed=0:03:12.50    \nframe=   74 fps=0.4 q=30.8 size=     768KiB time=00:00:02.40 bitrate=2621.6kbits/s speed=0.0124x elapsed=0:03:13.04    \nframe=   74 fps=0.4 q=30.8 size=     768KiB time=00:00:02.40 bitrate=2621.6kbits/s speed=0.0124x elapsed=0:03:13.57    \nframe=   74 fps=0.4 q=30.8 size=     768KiB time=00:00:02.40 bitrate=2621.6kbits/s speed=0.0124x elapsed=0:03:14.10    \nframe=   74 fps=0.4 q=30.8 size=     768KiB time=00:00:02.40 bitrate=2621.6kbits/s speed=0.0123x elapsed=0:03:14.65    \nframe=   74 fps=0.4 q=30.8 size=     768KiB time=00:00:02.40 bitrate=2621.6kbits/s speed=0.0123x elapsed=0:03:15.15    \nframe=   75 fps=0.4 q=32.5 size=     768KiB time=00:00:02.43 bitrate=2585.7kbits/s speed=0.0124x elapsed=0:03:15.67    \nframe=   76 fps=0.4 q=32.7 size=     768KiB time=00:00:02.46 bitrate=2550.7kbits/s speed=0.0126x elapsed=0:03:16.19    \nframe=   76 fps=0.4 q=32.7 size=     768KiB time=00:00:02.46 bitrate=2550.7kbits/s speed=0.0125x elapsed=0:03:16.72    \nframe=   76 fps=0.4 q=32.7 size=     768KiB time=00:00:02.46 bitrate=2550.7kbits/s speed=0.0125x elapsed=0:03:17.26    \nframe=   77 fps=0.4 q=28.9 size=     768KiB time=00:00:02.50 bitrate=2516.7kbits/s speed=0.0126x elapsed=0:03:17.79    \nframe=   77 fps=0.4 q=28.9 size=     768KiB time=00:00:02.50 bitrate=2516.7kbits/s speed=0.0126x elapsed=0:03:18.32    \nframe=   77 fps=0.4 q=28.9 size=     768KiB time=00:00:02.50 bitrate=2516.7kbits/s speed=0.0126x elapsed=0:03:18.85    \nframe=   78 fps=0.4 q=30.8 size=     768KiB time=00:00:02.53 bitrate=2483.6kbits/s speed=0.0127x elapsed=0:03:19.37    \nframe=   78 fps=0.4 q=30.8 size=     768KiB time=00:00:02.53 bitrate=2483.6kbits/s speed=0.0127x elapsed=0:03:19.89    \nframe=   79 fps=0.4 q=32.6 size=     768KiB time=00:00:02.56 bitrate=2451.4kbits/s speed=0.0128x elapsed=0:03:20.40    \nframe=   79 fps=0.4 q=32.6 size=     768KiB time=00:00:02.56 bitrate=2451.4kbits/s speed=0.0128x elapsed=0:03:20.92    \nframe=   79 fps=0.4 q=32.6 size=     768KiB time=00:00:02.56 bitrate=2451.4kbits/s speed=0.0127x elapsed=0:03:21.45    \nframe=   80 fps=0.4 q=32.9 size=     768KiB time=00:00:02.60 bitrate=2419.9kbits/s speed=0.0129x elapsed=0:03:21.98    \nframe=   80 fps=0.4 q=32.9 size=     768KiB time=00:00:02.60 bitrate=2419.9kbits/s speed=0.0128x elapsed=0:03:22.52    \nframe=   80 fps=0.4 q=32.9 size=     768KiB time=00:00:02.60 bitrate=2419.9kbits/s speed=0.0128x elapsed=0:03:23.04    \nframe=   80 fps=0.4 q=32.9 size=     768KiB time=00:00:02.60 bitrate=2419.9kbits/s speed=0.0128x elapsed=0:03:23.59    \nframe=   80 fps=0.4 q=32.9 size=     768KiB time=00:00:02.60 bitrate=2419.9kbits/s speed=0.0127x elapsed=0:03:24.12    \nframe=   81 fps=0.4 q=29.1 size=     768KiB time=00:00:02.63 bitrate=2389.3kbits/s speed=0.0129x elapsed=0:03:24.64    \nframe=   82 fps=0.4 q=31.2 size=     768KiB time=00:00:02.66 bitrate=2359.4kbits/s speed=0.013x elapsed=0:03:25.17    \nframe=   82 fps=0.4 q=31.2 size=     768KiB time=00:00:02.66 bitrate=2359.4kbits/s speed=0.013x elapsed=0:03:25.68    \nframe=   83 fps=0.4 q=33.2 size=     768KiB time=00:00:02.70 bitrate=2330.3kbits/s speed=0.0131x elapsed=0:03:26.21    \nframe=   83 fps=0.4 q=33.2 size=     768KiB time=00:00:02.70 bitrate=2330.3kbits/s speed=0.0131x elapsed=0:03:26.72    \nframe=   83 fps=0.4 q=33.2 size=     768KiB time=00:00:02.70 bitrate=2330.3kbits/s speed=0.013x elapsed=0:03:27.24    \nframe=   83 fps=0.4 q=33.2 size=     768KiB time=00:00:02.70 bitrate=2330.3kbits/s speed=0.013x elapsed=0:03:27.77    \nframe=   84 fps=0.4 q=33.0 size=     768KiB time=00:00:02.73 bitrate=2301.9kbits/s speed=0.0131x elapsed=0:03:28.30    \nframe=   84 fps=0.4 q=33.0 size=     768KiB time=00:00:02.73 bitrate=2301.9kbits/s speed=0.0131x elapsed=0:03:28.83    \nframe=   84 fps=0.4 q=33.0 size=     768KiB time=00:00:02.73 bitrate=2301.9kbits/s speed=0.0131x elapsed=0:03:29.35    \nframe=   85 fps=0.4 q=29.1 size=     768KiB time=00:00:02.76 bitrate=2274.1kbits/s speed=0.0132x elapsed=0:03:29.85    \nframe=   85 fps=0.4 q=29.1 size=     768KiB time=00:00:02.76 bitrate=2274.1kbits/s speed=0.0132x elapsed=0:03:30.37    \nframe=   86 fps=0.4 q=33.2 size=     768KiB time=00:00:02.80 bitrate=2247.1kbits/s speed=0.0133x elapsed=0:03:30.89    \nframe=   86 fps=0.4 q=33.2 size=     768KiB time=00:00:02.80 bitrate=2247.1kbits/s speed=0.0132x elapsed=0:03:31.40    \nframe=   86 fps=0.4 q=33.2 size=     768KiB time=00:00:02.80 bitrate=2247.1kbits/s speed=0.0132x elapsed=0:03:31.91    \nframe=   86 fps=0.4 q=33.2 size=     768KiB time=00:00:02.80 bitrate=2247.1kbits/s speed=0.0132x elapsed=0:03:32.50    \nframe=   87 fps=0.4 q=28.9 size=     768KiB time=00:00:02.83 bitrate=2220.6kbits/s speed=0.0133x elapsed=0:03:33.07    \nframe=   87 fps=0.4 q=28.9 size=     768KiB time=00:00:02.83 bitrate=2220.6kbits/s speed=0.0133x elapsed=0:03:33.61    \nframe=   87 fps=0.4 q=28.9 size=     768KiB time=00:00:02.83 bitrate=2220.6kbits/s speed=0.0132x elapsed=0:03:34.12    \nframe=   88 fps=0.4 q=31.4 size=    1024KiB time=00:00:02.86 bitrate=2926.4kbits/s speed=0.0134x elapsed=0:03:34.66    \nframe=   88 fps=0.4 q=31.4 size=    1024KiB time=00:00:02.86 bitrate=2926.4kbits/s speed=0.0133x elapsed=0:03:35.19    \nframe=   88 fps=0.4 q=31.4 size=    1024KiB time=00:00:02.86 bitrate=2926.4kbits/s speed=0.0133x elapsed=0:03:35.71    \nframe=   89 fps=0.4 q=33.0 size=    1024KiB time=00:00:02.90 bitrate=2892.7kbits/s speed=0.0134x elapsed=0:03:36.21    \nframe=   89 fps=0.4 q=33.0 size=    1024KiB time=00:00:02.90 bitrate=2892.7kbits/s speed=0.0134x elapsed=0:03:36.73    \nframe=   89 fps=0.4 q=33.0 size=    1024KiB time=00:00:02.90 bitrate=2892.7kbits/s speed=0.0133x elapsed=0:03:37.25    \nframe=   90 fps=0.4 q=32.9 size=    1024KiB time=00:00:02.93 bitrate=2859.9kbits/s speed=0.0135x elapsed=0:03:37.78    \nframe=   90 fps=0.4 q=32.9 size=    1024KiB time=00:00:02.93 bitrate=2859.9kbits/s speed=0.0134x elapsed=0:03:38.30    \nframe=   91 fps=0.4 q=28.9 size=    1024KiB time=00:00:02.96 bitrate=2827.7kbits/s speed=0.0136x elapsed=0:03:38.81    \nframe=   91 fps=0.4 q=28.9 size=    1024KiB time=00:00:02.96 bitrate=2827.7kbits/s speed=0.0135x elapsed=0:03:39.34    \nframe=   91 fps=0.4 q=28.9 size=    1024KiB time=00:00:02.96 bitrate=2827.7kbits/s speed=0.0135x elapsed=0:03:39.86    \nframe=   92 fps=0.4 q=30.4 size=    1024KiB time=00:00:03.00 bitrate=2796.3kbits/s speed=0.0136x elapsed=0:03:40.38    \nframe=   92 fps=0.4 q=30.4 size=    1024KiB time=00:00:03.00 bitrate=2796.3kbits/s speed=0.0136x elapsed=0:03:40.91    \nframe=   92 fps=0.4 q=30.4 size=    1024KiB time=00:00:03.00 bitrate=2796.3kbits/s speed=0.0135x elapsed=0:03:41.41    \nframe=   92 fps=0.4 q=30.4 size=    1024KiB time=00:00:03.00 bitrate=2796.3kbits/s speed=0.0135x elapsed=0:03:41.97    \nframe=   93 fps=0.4 q=32.8 size=    1024KiB time=00:00:03.03 bitrate=2765.6kbits/s speed=0.0136x elapsed=0:03:42.50    \nframe=   93 fps=0.4 q=32.8 size=    1024KiB time=00:00:03.03 bitrate=2765.6kbits/s speed=0.0136x elapsed=0:03:43.01    \nframe=   94 fps=0.4 q=29.0 size=    1024KiB time=00:00:03.06 bitrate=2735.5kbits/s speed=0.0137x elapsed=0:03:43.53    \nframe=   94 fps=0.4 q=29.0 size=    1024KiB time=00:00:03.06 bitrate=2735.5kbits/s speed=0.0137x elapsed=0:03:44.05    \nframe=   94 fps=0.4 q=29.0 size=    1024KiB time=00:00:03.06 bitrate=2735.5kbits/s speed=0.0137x elapsed=0:03:44.57    \nframe=   95 fps=0.4 q=31.7 size=    1024KiB time=00:00:03.10 bitrate=2706.1kbits/s speed=0.0138x elapsed=0:03:45.09    \nframe=   95 fps=0.4 q=31.7 size=    1024KiB time=00:00:03.10 bitrate=2706.1kbits/s speed=0.0137x elapsed=0:03:45.62    \nframe=   96 fps=0.4 q=33.3 size=    1024KiB time=00:00:03.13 bitrate=2677.3kbits/s speed=0.0139x elapsed=0:03:46.14    \nframe=   96 fps=0.4 q=33.3 size=    1024KiB time=00:00:03.13 bitrate=2677.3kbits/s speed=0.0138x elapsed=0:03:46.71    \nframe=   96 fps=0.4 q=33.3 size=    1024KiB time=00:00:03.13 bitrate=2677.3kbits/s speed=0.0138x elapsed=0:03:47.25    \nframe=   97 fps=0.4 q=33.3 size=    1024KiB time=00:00:03.16 bitrate=2649.1kbits/s speed=0.0139x elapsed=0:03:47.81    \nframe=   97 fps=0.4 q=33.3 size=    1024KiB time=00:00:03.16 bitrate=2649.1kbits/s speed=0.0139x elapsed=0:03:48.33    \nframe=   97 fps=0.4 q=33.3 size=    1024KiB time=00:00:03.16 bitrate=2649.1kbits/s speed=0.0138x elapsed=0:03:48.84    \nframe=   97 fps=0.4 q=33.3 size=    1024KiB time=00:00:03.16 bitrate=2649.1kbits/s speed=0.0138x elapsed=0:03:49.36    \nframe=   98 fps=0.4 q=29.5 size=    1024KiB time=00:00:03.20 bitrate=2621.6kbits/s speed=0.0139x elapsed=0:03:49.89    \nframe=   98 fps=0.4 q=29.5 size=    1024KiB time=00:00:03.20 bitrate=2621.6kbits/s speed=0.0139x elapsed=0:03:50.41    \nframe=   98 fps=0.4 q=29.5 size=    1024KiB time=00:00:03.20 bitrate=2621.6kbits/s speed=0.0139x elapsed=0:03:50.95    \nframe=   98 fps=0.4 q=29.5 size=    1024KiB time=00:00:03.20 bitrate=2621.6kbits/s speed=0.0138x elapsed=0:03:51.47    \nframe=   99 fps=0.4 q=31.8 size=    1024KiB time=00:00:03.23 bitrate=2594.5kbits/s speed=0.0139x elapsed=0:03:52.02    \nframe=   99 fps=0.4 q=31.8 size=    1024KiB time=00:00:03.23 bitrate=2594.5kbits/s speed=0.0139x elapsed=0:03:52.55    \nframe=   99 fps=0.4 q=31.8 size=    1024KiB time=00:00:03.23 bitrate=2594.5kbits/s speed=0.0139x elapsed=0:03:53.07    \nframe=   99 fps=0.4 q=31.8 size=    1024KiB time=00:00:03.23 bitrate=2594.5kbits/s speed=0.0138x elapsed=0:03:53.60    \nframe=   99 fps=0.4 q=31.8 size=    1024KiB time=00:00:03.23 bitrate=2594.5kbits/s speed=0.0138x elapsed=0:03:54.15    \nframe=  100 fps=0.4 q=33.7 size=    1024KiB time=00:00:03.26 bitrate=2568.0kbits/s speed=0.0139x elapsed=0:03:54.71    \nframe=  101 fps=0.4 q=34.0 size=    1024KiB time=00:00:03.30 bitrate=2542.1kbits/s speed=0.014x elapsed=0:03:55.24    \nframe=  101 fps=0.4 q=34.0 size=    1024KiB time=00:00:03.30 bitrate=2542.1kbits/s speed=0.014x elapsed=0:03:55.76    \nframe=  101 fps=0.4 q=34.0 size=    1024KiB time=00:00:03.30 bitrate=2542.1kbits/s speed=0.014x elapsed=0:03:56.28    \nframe=  101 fps=0.4 q=34.0 size=    1024KiB time=00:00:03.30 bitrate=2542.1kbits/s speed=0.0139x elapsed=0:03:56.80    \nframe=  102 fps=0.4 q=29.3 size=    1024KiB time=00:00:03.33 bitrate=2516.7kbits/s speed=0.014x elapsed=0:03:57.32    \nframe=  102 fps=0.4 q=29.3 size=    1024KiB time=00:00:03.33 bitrate=2516.7kbits/s speed=0.014x elapsed=0:03:57.84    \nframe=  102 fps=0.4 q=29.3 size=    1024KiB time=00:00:03.33 bitrate=2516.7kbits/s speed=0.014x elapsed=0:03:58.36    \nframe=  102 fps=0.4 q=29.3 size=    1024KiB time=00:00:03.33 bitrate=2516.7kbits/s speed=0.014x elapsed=0:03:58.89    \nframe=  102 fps=0.4 q=29.3 size=    1024KiB time=00:00:03.33 bitrate=2516.7kbits/s speed=0.0139x elapsed=0:03:59.42    \nframe=  103 fps=0.4 q=32.1 size=    1024KiB time=00:00:03.36 bitrate=2491.8kbits/s speed=0.014x elapsed=0:03:59.93    \nframe=  103 fps=0.4 q=32.1 size=    1024KiB time=00:00:03.36 bitrate=2491.8kbits/s speed=0.014x elapsed=0:04:00.46    \nframe=  104 fps=0.4 q=33.8 size=    1024KiB time=00:00:03.40 bitrate=2467.3kbits/s speed=0.0141x elapsed=0:04:00.99    \nframe=  104 fps=0.4 q=33.8 size=    1024KiB time=00:00:03.40 bitrate=2467.3kbits/s speed=0.0141x elapsed=0:04:01.49    \nframe=  105 fps=0.4 q=29.2 size=    1024KiB time=00:00:03.43 bitrate=2443.4kbits/s speed=0.0142x elapsed=0:04:02.02    \nframe=  105 fps=0.4 q=29.2 size=    1024KiB time=00:00:03.43 bitrate=2443.4kbits/s speed=0.0142x elapsed=0:04:02.53    \nframe=  105 fps=0.4 q=29.2 size=    1024KiB time=00:00:03.43 bitrate=2443.4kbits/s speed=0.0141x elapsed=0:04:03.06    \nframe=  105 fps=0.4 q=29.2 size=    1024KiB time=00:00:03.43 bitrate=2443.4kbits/s speed=0.0141x elapsed=0:04:03.60    \nframe=  106 fps=0.4 q=31.0 size=    1280KiB time=00:00:03.43 bitrate=3054.2kbits/s speed=0.0141x elapsed=0:04:04.16    \nframe=  106 fps=0.4 q=31.0 size=    1280KiB time=00:00:03.46 bitrate=3024.8kbits/s speed=0.0142x elapsed=0:04:04.77    \nframe=  106 fps=0.4 q=31.0 size=    1280KiB time=00:00:03.46 bitrate=3024.8kbits/s speed=0.0141x elapsed=0:04:05.36    \nframe=  106 fps=0.4 q=31.0 size=    1280KiB time=00:00:03.46 bitrate=3024.8kbits/s speed=0.0141x elapsed=0:04:05.93    \nframe=  106 fps=0.4 q=31.0 size=    1280KiB time=00:00:03.46 bitrate=3024.8kbits/s speed=0.0141x elapsed=0:04:06.48    \nframe=  106 fps=0.4 q=31.0 size=    1280KiB time=00:00:03.46 bitrate=3024.8kbits/s speed=0.014x elapsed=0:04:07.01    \nframe=  106 fps=0.4 q=31.0 size=    1280KiB time=00:00:03.46 bitrate=3024.8kbits/s speed=0.014x elapsed=0:04:07.52    \nframe=  106 fps=0.4 q=31.0 size=    1280KiB time=00:00:03.46 bitrate=3024.8kbits/s speed=0.014x elapsed=0:04:08.04    \nframe=  107 fps=0.4 q=33.5 size=    1280KiB time=00:00:03.50 bitrate=2996.0kbits/s speed=0.0141x elapsed=0:04:08.56    \nframe=  107 fps=0.4 q=33.5 size=    1280KiB time=00:00:03.50 bitrate=2996.0kbits/s speed=0.014x elapsed=0:04:09.11    \nframe=  108 fps=0.4 q=29.2 size=    1280KiB time=00:00:03.53 bitrate=2967.8kbits/s speed=0.0142x elapsed=0:04:09.64    \nframe=  109 fps=0.4 q=31.9 size=    1280KiB time=00:00:03.56 bitrate=2940.0kbits/s speed=0.0143x elapsed=0:04:10.15    \nframe=  109 fps=0.4 q=31.9 size=    1280KiB time=00:00:03.56 bitrate=2940.0kbits/s speed=0.0142x elapsed=0:04:10.67    \nframe=  110 fps=0.4 q=33.9 size=    1280KiB time=00:00:03.60 bitrate=2912.8kbits/s speed=0.0143x elapsed=0:04:11.19    \nframe=  111 fps=0.4 q=34.3 size=    1280KiB time=00:00:03.63 bitrate=2886.1kbits/s speed=0.0144x elapsed=0:04:11.71    \nframe=  111 fps=0.4 q=34.3 size=    1280KiB time=00:00:03.63 bitrate=2886.1kbits/s speed=0.0144x elapsed=0:04:12.22    \nframe=  112 fps=0.4 q=29.4 size=    1280KiB time=00:00:03.66 bitrate=2859.8kbits/s speed=0.0145x elapsed=0:04:12.74    \nframe=  113 fps=0.4 q=31.9 size=    1280KiB time=00:00:03.70 bitrate=2834.1kbits/s speed=0.0146x elapsed=0:04:13.24    \nframe=  113 fps=0.4 q=31.9 size=    1280KiB time=00:00:03.70 bitrate=2834.1kbits/s speed=0.0146x elapsed=0:04:13.77    \nframe=  113 fps=0.4 q=31.9 size=    1280KiB time=00:00:03.70 bitrate=2834.1kbits/s speed=0.0145x elapsed=0:04:14.31    \nframe=  114 fps=0.4 q=34.2 size=    1280KiB time=00:00:03.73 bitrate=2808.8kbits/s speed=0.0146x elapsed=0:04:14.89    \nframe=  114 fps=0.4 q=34.2 size=    1280KiB time=00:00:03.73 bitrate=2808.8kbits/s speed=0.0146x elapsed=0:04:15.41    \nframe=  115 fps=0.4 q=33.8 size=    1280KiB time=00:00:03.76 bitrate=2783.9kbits/s speed=0.0147x elapsed=0:04:15.93    \nframe=  115 fps=0.4 q=33.8 size=    1280KiB time=00:00:03.76 bitrate=2783.9kbits/s speed=0.0147x elapsed=0:04:16.46    \nframe=  115 fps=0.4 q=33.8 size=    1280KiB time=00:00:03.76 bitrate=2783.9kbits/s speed=0.0147x elapsed=0:04:16.98    \nframe=  115 fps=0.4 q=33.8 size=    1280KiB time=00:00:03.76 bitrate=2783.9kbits/s speed=0.0146x elapsed=0:04:17.50    \nframe=  115 fps=0.4 q=33.8 size=    1280KiB time=00:00:03.76 bitrate=2783.9kbits/s speed=0.0146x elapsed=0:04:18.01    \nframe=  116 fps=0.4 q=29.6 size=    1280KiB time=00:00:03.80 bitrate=2759.5kbits/s speed=0.0147x elapsed=0:04:18.56    \nframe=  116 fps=0.4 q=29.6 size=    1280KiB time=00:00:03.80 bitrate=2759.5kbits/s speed=0.0147x elapsed=0:04:19.10    \nframe=  116 fps=0.4 q=29.6 size=    1280KiB time=00:00:03.80 bitrate=2759.5kbits/s speed=0.0146x elapsed=0:04:19.66    \nframe=  116 fps=0.4 q=29.6 size=    1280KiB time=00:00:03.80 bitrate=2759.5kbits/s speed=0.0146x elapsed=0:04:20.21    \nframe=  117 fps=0.4 q=31.8 size=    1280KiB time=00:00:03.83 bitrate=2735.5kbits/s speed=0.0147x elapsed=0:04:20.83    \nframe=  117 fps=0.4 q=31.8 size=    1280KiB time=00:00:03.83 bitrate=2735.5kbits/s speed=0.0147x elapsed=0:04:21.43    \nframe=  117 fps=0.4 q=31.8 size=    1280KiB time=00:00:03.83 bitrate=2735.5kbits/s speed=0.0146x elapsed=0:04:21.97    \nframe=  117 fps=0.4 q=31.8 size=    1280KiB time=00:00:03.83 bitrate=2735.5kbits/s speed=0.0146x elapsed=0:04:22.50    \nframe=  117 fps=0.4 q=31.8 size=    1280KiB time=00:00:03.83 bitrate=2735.5kbits/s speed=0.0146x elapsed=0:04:23.02    \nframe=  117 fps=0.4 q=31.8 size=    1280KiB time=00:00:03.83 bitrate=2735.5kbits/s speed=0.0145x elapsed=0:04:23.55    \nframe=  117 fps=0.4 q=31.8 size=    1280KiB time=00:00:03.83 bitrate=2735.5kbits/s speed=0.0145x elapsed=0:04:24.10    \nframe=  118 fps=0.4 q=33.8 size=    1280KiB time=00:00:03.86 bitrate=2711.9kbits/s speed=0.0146x elapsed=0:04:24.67    \nframe=  118 fps=0.4 q=33.8 size=    1280KiB time=00:00:03.86 bitrate=2711.9kbits/s speed=0.0146x elapsed=0:04:25.21    \nframe=  118 fps=0.4 q=33.8 size=    1280KiB time=00:00:03.86 bitrate=2711.9kbits/s speed=0.0146x elapsed=0:04:25.74    \nframe=  118 fps=0.4 q=33.8 size=    1280KiB time=00:00:03.86 bitrate=2711.9kbits/s speed=0.0145x elapsed=0:04:26.29    \nframe=  119 fps=0.4 q=33.8 size=    1280KiB time=00:00:03.90 bitrate=2688.7kbits/s speed=0.0146x elapsed=0:04:26.85    \nframe=  119 fps=0.4 q=33.8 size=    1280KiB time=00:00:03.90 bitrate=2688.7kbits/s speed=0.0146x elapsed=0:04:27.39    \nframe=  119 fps=0.4 q=33.8 size=    1280KiB time=00:00:03.90 bitrate=2688.7kbits/s speed=0.0146x elapsed=0:04:27.95    \nframe=  119 fps=0.4 q=33.8 size=    1280KiB time=00:00:03.90 bitrate=2688.7kbits/s speed=0.0145x elapsed=0:04:28.50    \nframe=  119 fps=0.4 q=33.8 size=    1280KiB time=00:00:03.90 bitrate=2688.7kbits/s speed=0.0145x elapsed=0:04:29.05    \nframe=  119 fps=0.4 q=33.8 size=    1280KiB time=00:00:03.90 bitrate=2688.7kbits/s speed=0.0145x elapsed=0:04:29.60    \nframe=  119 fps=0.4 q=33.8 size=    1280KiB time=00:00:03.90 bitrate=2688.7kbits/s speed=0.0144x elapsed=0:04:30.14    \nframe=  119 fps=0.4 q=33.8 size=    1280KiB time=00:00:03.90 bitrate=2688.7kbits/s speed=0.0144x elapsed=0:04:30.68    \nframe=  119 fps=0.4 q=33.8 size=    1280KiB time=00:00:03.90 bitrate=2688.7kbits/s speed=0.0144x elapsed=0:04:31.21    \nframe=  119 fps=0.4 q=33.8 size=    1280KiB time=00:00:03.90 bitrate=2688.7kbits/s speed=0.0144x elapsed=0:04:31.74    \nframe=  120 fps=0.4 q=29.4 size=    1280KiB time=00:00:03.93 bitrate=2666.0kbits/s speed=0.0144x elapsed=0:04:32.27    \nframe=  120 fps=0.4 q=29.4 size=    1280KiB time=00:00:03.93 bitrate=2666.0kbits/s speed=0.0144x elapsed=0:04:32.83    \nframe=  120 fps=0.4 q=29.4 size=    1280KiB time=00:00:03.93 bitrate=2666.0kbits/s speed=0.0144x elapsed=0:04:33.35    \nframe=  120 fps=0.4 q=29.4 size=    1280KiB time=00:00:03.93 bitrate=2666.0kbits/s speed=0.0144x elapsed=0:04:33.88    \nframe=  120 fps=0.4 q=29.4 size=    1280KiB time=00:00:03.93 bitrate=2666.0kbits/s speed=0.0143x elapsed=0:04:34.43    \nframe=  120 fps=0.4 q=29.4 size=    1280KiB time=00:00:03.93 bitrate=2666.0kbits/s speed=0.0143x elapsed=0:04:34.95    \nframe=  120 fps=0.4 q=29.4 size=    1280KiB time=00:00:03.93 bitrate=2666.0kbits/s speed=0.0143x elapsed=0:04:35.50    \nframe=  120 fps=0.4 q=29.4 size=    1280KiB time=00:00:03.93 bitrate=2666.0kbits/s speed=0.0142x elapsed=0:04:36.05    \nframe=  121 fps=0.4 q=34.1 size=    1280KiB time=00:00:03.96 bitrate=2643.6kbits/s speed=0.0143x elapsed=0:04:36.60    \nframe=  121 fps=0.4 q=34.1 size=    1280KiB time=00:00:03.96 bitrate=2643.6kbits/s speed=0.0143x elapsed=0:04:37.14    \nframe=  122 fps=0.4 q=29.1 size=    1280KiB time=00:00:04.00 bitrate=2621.5kbits/s speed=0.0144x elapsed=0:04:37.65    \nframe=  122 fps=0.4 q=29.1 size=    1280KiB time=00:00:04.00 bitrate=2621.5kbits/s speed=0.0144x elapsed=0:04:38.22    \nframe=  122 fps=0.4 q=29.1 size=    1280KiB time=00:00:04.00 bitrate=2621.5kbits/s speed=0.0143x elapsed=0:04:38.76    \nframe=  122 fps=0.4 q=29.1 size=    1280KiB time=00:00:04.00 bitrate=2621.5kbits/s speed=0.0143x elapsed=0:04:39.32    \nframe=  122 fps=0.4 q=29.1 size=    1280KiB time=00:00:04.00 bitrate=2621.5kbits/s speed=0.0143x elapsed=0:04:39.87    \nframe=  123 fps=0.4 q=32.1 size=    1280KiB time=00:00:04.03 bitrate=2599.9kbits/s speed=0.0144x elapsed=0:04:40.42    \nframe=  123 fps=0.4 q=32.1 size=    1280KiB time=00:00:04.03 bitrate=2599.9kbits/s speed=0.0144x elapsed=0:04:40.94    \nframe=  123 fps=0.4 q=32.1 size=    1280KiB time=00:00:04.03 bitrate=2599.9kbits/s speed=0.0143x elapsed=0:04:41.51    \nframe=  123 fps=0.4 q=32.1 size=    1280KiB time=00:00:04.03 bitrate=2599.9kbits/s speed=0.0143x elapsed=0:04:42.06    \nframe=  123 fps=0.4 q=32.1 size=    1280KiB time=00:00:04.03 bitrate=2599.9kbits/s speed=0.0143x elapsed=0:04:42.62    \nframe=  123 fps=0.4 q=32.1 size=    1280KiB time=00:00:04.03 bitrate=2599.9kbits/s speed=0.0142x elapsed=0:04:43.15    \nframe=  123 fps=0.4 q=32.1 size=    1280KiB time=00:00:04.03 bitrate=2599.9kbits/s speed=0.0142x elapsed=0:04:43.70    \nframe=  123 fps=0.4 q=32.1 size=    1280KiB time=00:00:04.03 bitrate=2599.9kbits/s speed=0.0142x elapsed=0:04:44.27    \nframe=  124 fps=0.4 q=34.2 size=    1280KiB time=00:00:04.06 bitrate=2578.6kbits/s speed=0.0143x elapsed=0:04:44.81    \nframe=  124 fps=0.4 q=34.2 size=    1280KiB time=00:00:04.06 bitrate=2578.6kbits/s speed=0.0143x elapsed=0:04:45.37    \nframe=  124 fps=0.4 q=34.2 size=    1280KiB time=00:00:04.06 bitrate=2578.6kbits/s speed=0.0142x elapsed=0:04:45.94    \nframe=  124 fps=0.4 q=34.2 size=    1280KiB time=00:00:04.06 bitrate=2578.6kbits/s speed=0.0142x elapsed=0:04:46.47    \nframe=  124 fps=0.4 q=34.2 size=    1280KiB time=00:00:04.06 bitrate=2578.6kbits/s speed=0.0142x elapsed=0:04:47.01    \nframe=  124 fps=0.4 q=34.2 size=    1280KiB time=00:00:04.06 bitrate=2578.6kbits/s speed=0.0141x elapsed=0:04:47.58    \nframe=  124 fps=0.4 q=34.2 size=    1280KiB time=00:00:04.06 bitrate=2578.6kbits/s speed=0.0141x elapsed=0:04:48.12    \nframe=  124 fps=0.4 q=34.2 size=    1280KiB time=00:00:04.06 bitrate=2578.6kbits/s speed=0.0141x elapsed=0:04:48.68    \nframe=  124 fps=0.4 q=34.2 size=    1280KiB time=00:00:04.06 bitrate=2578.6kbits/s speed=0.0141x elapsed=0:04:49.24    \nframe=  125 fps=0.4 q=34.1 size=    1536KiB time=00:00:04.10 bitrate=3069.1kbits/s speed=0.0141x elapsed=0:04:49.78    \nframe=  125 fps=0.4 q=34.1 size=    1536KiB time=00:00:04.10 bitrate=3069.1kbits/s speed=0.0141x elapsed=0:04:50.32    \nframe=  125 fps=0.4 q=34.1 size=    1536KiB time=00:00:04.10 bitrate=3069.1kbits/s speed=0.0141x elapsed=0:04:50.87    \nframe=  126 fps=0.4 q=29.4 size=    1536KiB time=00:00:04.13 bitrate=3044.3kbits/s speed=0.0142x elapsed=0:04:51.41    \nframe=  126 fps=0.4 q=29.4 size=    1536KiB time=00:00:04.13 bitrate=3044.3kbits/s speed=0.0142x elapsed=0:04:51.96    \nframe=  126 fps=0.4 q=29.4 size=    1536KiB time=00:00:04.13 bitrate=3044.3kbits/s speed=0.0141x elapsed=0:04:52.49    \nframe=  126 fps=0.4 q=29.4 size=    1536KiB time=00:00:04.13 bitrate=3044.3kbits/s speed=0.0141x elapsed=0:04:53.02    \nframe=  126 fps=0.4 q=29.4 size=    1536KiB time=00:00:04.13 bitrate=3044.3kbits/s speed=0.0141x elapsed=0:04:53.56    \nframe=  126 fps=0.4 q=29.4 size=    1536KiB time=00:00:04.13 bitrate=3044.3kbits/s speed=0.0141x elapsed=0:04:54.10    \nframe=  127 fps=0.4 q=32.0 size=    1536KiB time=00:00:04.13 bitrate=3044.3kbits/s speed=0.014x elapsed=0:04:54.62    \nframe=  127 fps=0.4 q=32.0 size=    1536KiB time=00:00:04.16 bitrate=3020.0kbits/s speed=0.0141x elapsed=0:04:55.22    \nframe=  127 fps=0.4 q=32.0 size=    1536KiB time=00:00:04.16 bitrate=3020.0kbits/s speed=0.0141x elapsed=0:04:55.80    \nframe=  127 fps=0.4 q=32.0 size=    1536KiB time=00:00:04.16 bitrate=3020.0kbits/s speed=0.0141x elapsed=0:04:56.40    \nframe=  127 fps=0.4 q=32.0 size=    1536KiB time=00:00:04.16 bitrate=3020.0kbits/s speed=0.014x elapsed=0:04:56.98    \nframe=  127 fps=0.4 q=32.0 size=    1536KiB time=00:00:04.16 bitrate=3020.0kbits/s speed=0.014x elapsed=0:04:57.56    \nframe=  127 fps=0.4 q=32.0 size=    1536KiB time=00:00:04.16 bitrate=3020.0kbits/s speed=0.014x elapsed=0:04:58.22    \nframe=  127 fps=0.4 q=32.0 size=    1536KiB time=00:00:04.16 bitrate=3020.0kbits/s speed=0.0139x elapsed=0:04:58.83    \nframe=  127 fps=0.4 q=32.0 size=    1536KiB time=00:00:04.16 bitrate=3020.0kbits/s speed=0.0139x elapsed=0:04:59.47    \nframe=  127 fps=0.4 q=32.0 size=    1536KiB time=00:00:04.16 bitrate=3020.0kbits/s speed=0.0139x elapsed=0:05:00.04    \nframe=  127 fps=0.4 q=32.0 size=    1536KiB time=00:00:04.16 bitrate=3020.0kbits/s speed=0.0139x elapsed=0:05:00.61    \nframe=  127 fps=0.4 q=32.0 size=    1536KiB time=00:00:04.16 bitrate=3020.0kbits/s speed=0.0138x elapsed=0:05:01.18    \nframe=  128 fps=0.4 q=33.9 size=    1536KiB time=00:00:04.20 bitrate=2996.0kbits/s speed=0.0139x elapsed=0:05:01.82    \nframe=  128 fps=0.4 q=33.9 size=    1536KiB time=00:00:04.20 bitrate=2996.0kbits/s speed=0.0139x elapsed=0:05:02.46    \nframe=  128 fps=0.4 q=33.9 size=    1536KiB time=00:00:04.20 bitrate=2996.0kbits/s speed=0.0139x elapsed=0:05:03.05    \nframe=  129 fps=0.4 q=34.0 size=    1536KiB time=00:00:04.23 bitrate=2972.4kbits/s speed=0.0139x elapsed=0:05:03.59    \nframe=  129 fps=0.4 q=34.0 size=    1536KiB time=00:00:04.23 bitrate=2972.4kbits/s speed=0.0139x elapsed=0:05:04.15    \nframe=  129 fps=0.4 q=34.0 size=    1536KiB time=00:00:04.23 bitrate=2972.4kbits/s speed=0.0139x elapsed=0:05:04.72    \nframe=  129 fps=0.4 q=34.0 size=    1536KiB time=00:00:04.23 bitrate=2972.4kbits/s speed=0.0139x elapsed=0:05:05.33    \nframe=  129 fps=0.4 q=34.0 size=    1536KiB time=00:00:04.23 bitrate=2972.4kbits/s speed=0.0138x elapsed=0:05:05.86    \nframe=  129 fps=0.4 q=34.0 size=    1536KiB time=00:00:04.23 bitrate=2972.4kbits/s speed=0.0138x elapsed=0:05:06.38    \nframe=  129 fps=0.4 q=34.0 size=    1536KiB time=00:00:04.23 bitrate=2972.4kbits/s speed=0.0138x elapsed=0:05:06.91    \nframe=  129 fps=0.4 q=34.0 size=    1536KiB time=00:00:04.23 bitrate=2972.4kbits/s speed=0.0138x elapsed=0:05:07.43    \nframe=  130 fps=0.4 q=29.3 size=    1536KiB time=00:00:04.26 bitrate=2949.2kbits/s speed=0.0139x elapsed=0:05:07.95    \nframe=  130 fps=0.4 q=29.3 size=    1536KiB time=00:00:04.26 bitrate=2949.2kbits/s speed=0.0138x elapsed=0:05:08.47    \nframe=  131 fps=0.4 q=32.5 size=    1536KiB time=00:00:04.30 bitrate=2926.3kbits/s speed=0.0139x elapsed=0:05:09.00    \nframe=  131 fps=0.4 q=32.5 size=    1536KiB time=00:00:04.30 bitrate=2926.3kbits/s speed=0.0139x elapsed=0:05:09.52    \nframe=  132 fps=0.4 q=34.4 size=    1536KiB time=00:00:04.33 bitrate=2903.8kbits/s speed=0.014x elapsed=0:05:10.02    \nframe=  132 fps=0.4 q=34.4 size=    1536KiB time=00:00:04.33 bitrate=2903.8kbits/s speed=0.014x elapsed=0:05:10.55    \nframe=  133 fps=0.4 q=34.4 size=    1536KiB time=00:00:04.36 bitrate=2881.7kbits/s speed=0.014x elapsed=0:05:11.12    \nframe=  133 fps=0.4 q=34.4 size=    1536KiB time=00:00:04.36 bitrate=2881.7kbits/s speed=0.014x elapsed=0:05:11.64    \nframe=  134 fps=0.4 q=29.5 size=    1536KiB time=00:00:04.40 bitrate=2859.8kbits/s speed=0.0141x elapsed=0:05:12.20    \nframe=  134 fps=0.4 q=29.5 size=    1536KiB time=00:00:04.40 bitrate=2859.8kbits/s speed=0.0141x elapsed=0:05:12.72    \nframe=  134 fps=0.4 q=29.5 size=    1536KiB time=00:00:04.40 bitrate=2859.8kbits/s speed=0.014x elapsed=0:05:13.23    \nframe=  135 fps=0.4 q=32.1 size=    1536KiB time=00:00:04.43 bitrate=2838.3kbits/s speed=0.0141x elapsed=0:05:13.75    \nframe=  135 fps=0.4 q=32.1 size=    1536KiB time=00:00:04.43 bitrate=2838.3kbits/s speed=0.0141x elapsed=0:05:14.26    \nframe=  136 fps=0.4 q=34.2 size=    1536KiB time=00:00:04.46 bitrate=2817.1kbits/s speed=0.0142x elapsed=0:05:14.78    \nframe=  136 fps=0.4 q=34.2 size=    1536KiB time=00:00:04.46 bitrate=2817.1kbits/s speed=0.0142x elapsed=0:05:15.31    \nframe=  136 fps=0.4 q=34.2 size=    1536KiB time=00:00:04.46 bitrate=2817.1kbits/s speed=0.0141x elapsed=0:05:15.83    \nframe=  137 fps=0.4 q=34.3 size=    1536KiB time=00:00:04.50 bitrate=2796.3kbits/s speed=0.0142x elapsed=0:05:16.35    \nframe=  137 fps=0.4 q=34.3 size=    1536KiB time=00:00:04.50 bitrate=2796.3kbits/s speed=0.0142x elapsed=0:05:16.87    \nframe=  137 fps=0.4 q=34.3 size=    1536KiB time=00:00:04.50 bitrate=2796.3kbits/s speed=0.0142x elapsed=0:05:17.39    \nframe=  137 fps=0.4 q=34.3 size=    1536KiB time=00:00:04.50 bitrate=2796.3kbits/s speed=0.0142x elapsed=0:05:17.90    \nframe=  138 fps=0.4 q=29.3 size=    1536KiB time=00:00:04.53 bitrate=2775.7kbits/s speed=0.0142x elapsed=0:05:18.44    \nframe=  138 fps=0.4 q=29.3 size=    1536KiB time=00:00:04.53 bitrate=2775.7kbits/s speed=0.0142x elapsed=0:05:18.96    \nframe=  139 fps=0.4 q=32.2 size=    1536KiB time=00:00:04.56 bitrate=2755.5kbits/s speed=0.0143x elapsed=0:05:19.50    \nframe=  139 fps=0.4 q=32.2 size=    1536KiB time=00:00:04.56 bitrate=2755.5kbits/s speed=0.0143x elapsed=0:05:20.01    \nframe=  140 fps=0.4 q=34.1 size=    1536KiB time=00:00:04.60 bitrate=2735.5kbits/s speed=0.0144x elapsed=0:05:20.54    \nframe=  141 fps=0.4 q=34.3 size=    1536KiB time=00:00:04.63 bitrate=2715.8kbits/s speed=0.0144x elapsed=0:05:21.06    \nframe=  141 fps=0.4 q=34.3 size=    1536KiB time=00:00:04.63 bitrate=2715.8kbits/s speed=0.0144x elapsed=0:05:21.58    \nframe=  141 fps=0.4 q=34.3 size=    1536KiB time=00:00:04.63 bitrate=2715.8kbits/s speed=0.0144x elapsed=0:05:22.09    \nframe=  141 fps=0.4 q=34.3 size=    1536KiB time=00:00:04.63 bitrate=2715.8kbits/s speed=0.0144x elapsed=0:05:22.62    \nframe=  142 fps=0.4 q=30.0 size=    1536KiB time=00:00:04.66 bitrate=2696.4kbits/s speed=0.0144x elapsed=0:05:23.16    \nframe=  143 fps=0.4 q=32.0 size=    1536KiB time=00:00:04.70 bitrate=2677.3kbits/s speed=0.0145x elapsed=0:05:23.67    \nframe=  143 fps=0.4 q=32.0 size=    1536KiB time=00:00:04.70 bitrate=2677.3kbits/s speed=0.0145x elapsed=0:05:24.19    \nframe=  143 fps=0.4 q=32.0 size=    1536KiB time=00:00:04.70 bitrate=2677.3kbits/s speed=0.0145x elapsed=0:05:24.73    \nframe=  144 fps=0.4 q=34.3 size=    1536KiB time=00:00:04.73 bitrate=2658.4kbits/s speed=0.0146x elapsed=0:05:25.25    \nframe=  145 fps=0.4 q=34.5 size=    1536KiB time=00:00:04.76 bitrate=2639.8kbits/s speed=0.0146x elapsed=0:05:25.78    \nframe=  145 fps=0.4 q=34.5 size=    1536KiB time=00:00:04.76 bitrate=2639.8kbits/s speed=0.0146x elapsed=0:05:26.31    \nframe=  145 fps=0.4 q=34.5 size=    1536KiB time=00:00:04.76 bitrate=2639.8kbits/s speed=0.0146x elapsed=0:05:26.88    \nframe=  146 fps=0.4 q=34.2 size=    1536KiB time=00:00:04.80 bitrate=2621.5kbits/s speed=0.0147x elapsed=0:05:27.40    \nframe=  147 fps=0.4 q=31.6 size=    1536KiB time=00:00:04.83 bitrate=2603.4kbits/s speed=0.0147x elapsed=0:05:27.92    \nframe=  147 fps=0.4 q=31.6 size=    1536KiB time=00:00:04.83 bitrate=2603.4kbits/s speed=0.0147x elapsed=0:05:28.45    \nframe=  147 fps=0.4 q=31.6 size=    1536KiB time=00:00:04.83 bitrate=2603.4kbits/s speed=0.0147x elapsed=0:05:28.98    \nframe=  147 fps=0.4 q=31.6 size=    1536KiB time=00:00:04.83 bitrate=2603.4kbits/s speed=0.0147x elapsed=0:05:29.53    \nframe=  148 fps=0.4 q=32.1 size=    1792KiB time=00:00:04.86 bitrate=3016.5kbits/s speed=0.0147x elapsed=0:05:30.06    \nframe=  148 fps=0.4 q=32.1 size=    1792KiB time=00:00:04.86 bitrate=3016.5kbits/s speed=0.0147x elapsed=0:05:30.59    \nframe=  148 fps=0.4 q=32.1 size=    1792KiB time=00:00:04.86 bitrate=3016.5kbits/s speed=0.0147x elapsed=0:05:31.11    \nframe=  148 fps=0.4 q=32.1 size=    1792KiB time=00:00:04.86 bitrate=3016.5kbits/s speed=0.0147x elapsed=0:05:31.65    \n[mp4 @ 000001a6a112c680] Starting second pass: moving the moov atom to the beginning of the file\n[out#0/mp4 @ 000001a6a112c580] video:1829KiB audio:0KiB subtitle:0KiB other streams:0KiB global headers:2KiB muxing overhead: 0.283574%\nframe=  150 fps=0.5 q=34.0 Lsize=    1835KiB time=00:00:04.93 bitrate=3046.3kbits/s speed=0.0149x elapsed=0:05:31.70    \nx265 [info]: frame I:      1, Avg QP:32.13  kb/s: 6694.08 \nx265 [info]: frame P:     42, Avg QP:29.69  kb/s: 4917.52 \nx265 [info]: frame B:    107, Avg QP:33.08  kb/s: 2207.50 \nx265 [info]: Weighted P-Frames: Y:11.9% UV:9.5%\n\nencoded 150 frames in 331.38s (0.45 fps), 2996.21 kb/s, Avg QP:32.12\n",
  "seconds": 332.20032715797424,
  "probe_out": {}
}